<svg width="234" height="50" viewBox="0 0 234 50" fill="none" xmlns="http://www.w3.org/2000/svg">
<path d="M3.64746 25.1197C3.64746 38.3136 14.4574 49.0446 27.739 49.0446C41.0205 49.0446 51.8305 38.3136 51.8305 25.1197C51.8305 11.9259 41.0161 1.18604 27.739 1.18604C14.4619 1.18604 3.64746 11.9193 3.64746 25.1197ZM4.47951 25.1197C4.47951 12.3713 14.9169 2.00844 27.7434 2.00844C40.5699 2.00844 51.0096 12.3713 51.0096 25.1197C51.0096 37.8682 40.5766 48.2244 27.7434 48.2244C14.9102 48.2244 4.47951 37.8616 4.47951 25.1197ZM11.1538 18.5603C17.3149 14.5497 24.123 12.2125 35.6713 14.1903C36.3093 13.8243 36.6573 13.4803 36.8201 12.7262C33.9381 11.6966 30.8151 11.3328 26.7709 11.4033C23.137 11.5048 16.5989 12.8431 13.1056 14.8936L14.1697 13.5707C16.6123 12.153 22.9764 10.2634 27.7434 10.1664C31.1096 10.1025 32.8562 10.2921 36.8536 11.3592C36.5056 10.6779 35.6713 10.3406 34.4668 9.7982C30.5943 8.074 23.3623 7.91525 17.4376 10.5037C18.2184 9.98253 19.0387 9.52181 19.8914 9.12571C21.8432 8.24377 25.0376 7.38168 29.0372 7.44782C32.2294 7.49853 36.0193 8.60758 38.3437 10.894C38.6764 11.2772 38.9181 11.7293 39.0508 12.2169C40.8912 13.1386 41.9507 14.0051 42.5575 15.0281C42.8179 15.5686 42.9006 16.1762 42.7939 16.7655C43.39 17.0958 43.9043 17.5529 44.2997 18.1039C44.574 18.4999 44.754 18.9522 44.8261 19.4268C44.9042 20.0023 44.9689 20.6439 44.3643 21.3957C44.9979 21.7 45.4797 22.5643 45.5667 22.9391C45.8567 24.3194 44.9689 25.6577 43.7821 26.7006C42.4303 27.8802 39.4479 29.2781 37.0187 29.891C32.1892 31.0993 27.9286 31.6108 24.5379 32.2304C26.8111 32.8126 29.1517 33.098 31.4999 33.0793C38.6962 33.0793 45.0648 29.6948 45.0648 29.6948C45.0648 29.6948 44.9198 30.1358 44.7793 30.5282C40.2108 33.2733 32.9231 34.4353 29.8336 34.2919C26.9779 34.1889 24.148 33.7189 21.415 32.8941C20.6149 33.0927 19.833 33.3567 19.0772 33.6834C23.0322 35.4715 26.0169 35.8728 29.4008 36.1087C32.845 36.3623 38.5467 35.5377 43.3739 33.8047C43.1509 34.0252 43.0415 34.3713 42.814 34.5742C40.3602 35.8552 35.1315 37.1516 32.5127 37.2575C29.8938 37.3633 26.7129 37.2685 23.9602 36.7481C21.5711 36.2895 19.6349 35.5377 17.6049 34.6579C17.4375 34.7749 17.2959 34.9244 17.1889 35.0973C17.0819 35.2701 17.0117 35.4628 16.9826 35.6634C24.9105 39.7798 32.3454 39.868 40.7952 37.2619L40.0212 38.0049C30.717 41.7532 23.4382 40.2936 17.8101 37.597C17.6129 37.5199 17.4219 37.4277 17.2391 37.3214C17.7566 38.2232 22.0619 41.3409 26.8645 41.7311C30.1816 42.0045 34.2258 41.4379 36.6283 40.4854L35.2252 41.2152C32.5579 42.4599 29.6097 43 26.6682 42.7828C20.9331 42.4058 17.7031 39.8923 16.2531 38.5694C15.5839 37.952 15.2649 37.2354 15.0619 36.3645C13.7659 35.6876 12.9495 34.9931 12.2736 33.9392C11.8743 33.324 11.9546 32.6383 12.0505 32.0562C12.0788 31.8791 12.1282 31.7059 12.1977 31.5403C11.5754 31.0993 10.9463 30.612 10.6742 30.127C10.1076 29.1127 10.4511 28.2396 10.8504 27.5627C10.5153 27.228 10.2447 26.8357 10.0518 26.4052C9.90986 25.9496 9.86281 25.4703 9.91348 24.9963C10.0605 24.1294 10.4633 23.3248 11.0712 22.6834C12.3271 21.248 14.2968 20.1301 17.6785 19.0211C20.98 17.9363 22.3139 17.7732 24.8168 17.1977C27.7167 16.5362 31.2099 16.3158 34.1232 15.3015C26.0035 13.8838 17.567 15.1714 10.7009 19.8744L11.1538 18.5603ZM38.8144 13.5883C38.714 13.9852 38.2835 14.4416 37.9868 14.7547C38.8788 15.0019 39.7568 15.2963 40.6168 15.6367C40.5164 14.8583 39.5996 14.0933 38.8144 13.595V13.5883ZM13.7949 29.7014C13.3419 29.4595 12.9019 29.1946 12.4766 28.9077C12.2379 29.4148 12.684 29.9792 13.1458 30.2504C13.3488 30.0498 13.5785 29.8866 13.7837 29.7014H13.7949ZM41.1722 19.1666C41.7354 19.4079 42.2777 19.694 42.7939 20.0221C43.162 19.3254 42.9367 18.8712 42.1671 18.2296C41.8701 18.5759 41.5366 18.8901 41.1722 19.1666ZM39.4367 20.225C38.25 20.7674 36.5368 21.3274 34.1121 21.9447C32.1201 22.4386 27.2482 23.131 22.0195 24.262C20.3554 24.6192 15.8784 25.671 13.6744 27.5319C14.2879 28.0213 14.6671 28.1448 15.3542 28.5218C16.271 27.9397 17.5001 27.3929 19.3449 26.9057C22.5571 26.0568 24.9484 25.6842 27.8349 25.2322C30.7214 24.7802 36.0885 23.6689 39.0776 22.604C39.991 22.2947 40.8509 21.8485 41.6273 21.2811C41.4198 21.0606 39.5014 20.1324 39.4367 20.2183V20.225ZM16.8398 32.6162C17.345 32.3202 17.874 32.0658 18.4214 31.8556C17.5848 31.5116 16.7283 31.1368 15.8561 30.7377C15.4889 30.9587 15.1458 31.2166 14.8322 31.5072C15.5014 31.8864 16.1594 32.2635 16.8398 32.6096V32.6162ZM14.0804 32.8808C14.067 33.4122 14.3927 33.8884 15.111 34.4705C15.2031 34.1871 15.3493 33.9236 15.5415 33.6944C15.0419 33.4453 14.5533 33.1675 14.0804 32.8808ZM18.1336 23.0273C24.0137 21.3164 30.1794 20.7872 36.4253 19.1402C33.9849 18.4787 32.6487 18.2097 30.0656 18.5074C26.2089 18.9589 22.3964 19.7237 18.6667 20.7938C17.2859 21.2083 10.0005 23.2522 12.1018 26.1207C12.1018 26.1582 13.3488 24.4164 18.1247 23.0339L18.1336 23.0273ZM40.1684 17.061C39.059 16.5788 37.9134 16.1822 36.7421 15.8748C36.0875 16.3909 35.3541 16.801 34.5694 17.0897C36.1554 17.3697 37.3444 17.804 38.6783 18.1921C38.9192 18.3133 40.0011 17.3101 40.1684 17.0698V17.061ZM43.0683 22.6878C42.8899 22.8421 42.6958 22.9876 42.475 23.1508C41.1365 24.1739 39.0419 24.9852 36.1264 25.7569C30.0767 27.3753 25.6845 27.6134 20.69 28.8239C19.6906 29.066 18.7108 29.3814 17.7588 29.7676C18.7002 30.235 19.7018 30.6672 20.7324 31.0574C22.6794 30.4792 24.6651 30.0371 26.6749 29.7345C27.7903 29.5427 31.2412 28.9452 33.7329 28.4116C38.2322 27.4591 44.8239 25.3953 43.0683 22.679" fill="white"/>
<path d="M74.912 35.5685H79.8797L80.4842 31.9548H83.9017L84.5017 35.5729H89.4673L85.2735 14.6268H79.1079L74.912 35.5685ZM82.1907 20.9459L83.1165 27.34H81.265L82.1907 20.9459ZM94.1473 22.9722C94.9369 22.9722 96.4003 22.4629 96.4003 20.9239C96.4003 19.0982 94.7183 18.9748 94.2454 18.9748C93.3132 18.9778 92.3926 19.1794 91.5463 19.5657L91.5106 15.0347C92.9021 14.6587 94.3398 14.4754 95.7824 14.4901C99.782 14.4901 101.582 17.277 101.582 19.9846C101.582 22.6304 100.032 24.2466 98.5551 24.8595V25.0668C99.9694 25.5078 101.901 26.8792 101.901 30.0917C101.901 34.0383 99.1195 36.2234 95.5704 36.2234C93.6587 36.2234 92.4252 35.9456 90.9395 35.1342L91.022 30.7818C92.0402 31.2373 93.1507 31.4553 94.2677 31.419C95.8292 31.419 96.4716 30.2791 96.4716 29.4236C96.4716 28.244 95.7199 27.4591 94.0513 27.4591H92.0437V22.9722H94.1473ZM104.197 14.6224H117.558V35.5685H112.651V19.6671H109.082V35.5729H104.19L104.197 14.6224ZM120.345 35.5685H125.252V28.6651H126.894C131.746 28.6651 133.234 24.3392 133.234 21.5941C133.234 18.8491 131.525 14.6224 126.894 14.6268H120.353L120.345 35.5685ZM125.252 19.2372H126.414C127.53 19.2372 128.221 19.8986 128.221 21.6316C128.221 23.9004 127.048 24.057 126.414 24.057H125.252V19.2372ZM142.297 35.8265C148.097 35.8265 150.06 30.4466 150.06 25.0734C150.06 19.7002 148.09 14.3159 142.288 14.3159C136.486 14.3159 134.53 19.6914 134.53 25.069C134.53 30.4466 136.488 35.8221 142.288 35.8221L142.297 35.8265ZM142.288 30.7509C140.57 30.7509 139.676 28.7511 139.676 25.0624C139.676 21.3737 140.568 19.3716 142.288 19.3716C144.008 19.3716 144.902 21.3692 144.902 25.0624C144.902 28.7555 144.01 30.7509 142.288 30.7509ZM65.4404 14.6158H75.4786V19.8435H70.426V35.5707H65.4404V14.6158ZM152.397 14.6158H156.555L160.225 19.548L163.919 14.6158H168.066V35.5619H163.176V22.7737L160.225 26.4426L157.292 22.7737V35.5619H152.397V14.6158Z" fill="white"/>
<path d="M171.364 35.5687H177.211C178.478 35.5687 183.767 35.0483 183.78 28.7116C183.78 23.3538 179.678 22.4233 177.024 22.4233H176.158V19.6518H182.627V14.6226H171.364V35.5687ZM176.158 31.3795V26.6126H176.872C177.445 26.6126 178.991 26.6456 178.991 28.7954C178.991 31.0112 177.445 31.3773 176.872 31.3773L176.158 31.3795ZM201.396 14.6226H206.19V22.1632H209.61V14.6226H214.394V35.5687H209.61V27.1902H206.19V35.5687H201.396V14.6226ZM217.613 14.6226H222.4V22.1632H223.44L226.188 14.6226H231.394L227.656 24.5643L231.919 35.5687H226.282L223.534 27.1461H222.4V35.5687H217.609L217.613 14.6226ZM184.74 35.6084H189.707L190.307 31.9858H193.725L194.329 35.6084H199.295L195.099 14.6622H188.94L184.74 35.6084ZM192.016 20.9858L192.944 27.3798H191.09L192.016 20.9858Z" fill="#69ACDF"/>
</svg>
