<svg width="344" height="668" viewBox="0 0 344 668" fill="none" xmlns="http://www.w3.org/2000/svg">
<mask id="mask0_53_1345" style="mask-type:alpha" maskUnits="userSpaceOnUse" x="-16" y="52" width="287" height="545">
<path d="M64.2029 161.609L191.923 149.028L198.469 248.417L58.1982 258.464L64.2029 161.609Z" fill="#2536D1"/>
<path d="M191.959 149.028L198.468 248.058L128.342 253.072V154.941L144.12 153.377L191.959 149.028Z" fill="#0C2BA1"/>
<path d="M206.059 107.795L46.7197 122.249L50.5881 164.615L209.927 150.162L206.059 107.795Z" fill="#0C2BA1"/>
<path d="M218.375 290.204L39.1191 277.839L30.1572 406.111L226.507 414.45L218.375 290.204Z" fill="#355FF2"/>
<path d="M39.1191 278.127L75.3274 280.625V408.321L30.1572 406.398L39.1191 278.127Z" fill="#1B57D1"/>
<path d="M20.9934 225.366L15.001 276.908L235.75 302.405L241.742 250.862L20.9934 225.366Z" fill="#1752E8"/>
<path d="M11.6028 442.99L244.576 436.502L258.479 596.981H-2.06543L11.6028 442.99Z" fill="#8087C2"/>
<path d="M244.576 436.502L258.478 596.981H198.342V437.796L244.576 436.502Z" fill="#6076A1"/>
<path d="M265.24 377.696L-13.5752 399.323L-8.78472 460.676L270.03 439.049L265.24 377.696Z" fill="#676EAD"/>
<path d="M134.292 114.61H122.373V596.981H134.292V114.61Z" fill="#1647BE"/>
<path d="M126.953 103.754C118.694 95.1634 110.075 82.1871 100.211 75.6091C87.9674 67.3776 65.2472 57.87 52.0117 69.696C43.6268 77.1907 41.5171 99.6207 49.5593 109.074C58.3589 119.373 78.2482 123.165 90.3296 122.77C102.952 122.356 115.791 120.469 127.764 113.603C127.998 113.46 127.079 107.726 127.277 107.69C117.716 109.561 108.052 110.864 98.3358 111.591C84.1447 112.741 66.8159 113.855 53.869 106.828C51.5218 105.567 49.4978 103.783 47.9545 101.616C47.2521 100.554 46.7056 99.3984 46.3316 98.1828C45.8808 96.8169 46.3316 95.2892 46.2234 99.3151C46.2563 98.2595 46.3708 97.208 46.566 96.1699C47.9184 88.19 52.9313 79.9944 60.3424 76.3999C75.3991 69.1029 94.6032 82.4926 106.18 90.9937C113.789 96.5885 120.918 102.805 127.494 109.578C126.448 108.499 128.089 104.797 127.007 103.683L126.953 103.754Z" fill="#1647BE"/>
<path d="M134.4 112.741C146.32 112.418 161.701 114.718 173.259 111.878C187.685 108.284 209.936 97.9675 210.027 80.2643C210.027 69.0134 194.826 52.4066 182.384 52.0112C168.824 51.5798 152.649 63.7294 144.841 72.9135C136.672 82.5109 129.46 93.2586 126.521 106.72C126.521 106.99 131.335 110.171 131.245 110.315C136.265 101.968 141.787 93.9314 147.78 86.2493C156.454 74.9983 167.255 61.4648 181.175 56.6122C183.687 55.7181 186.373 55.4227 189.019 55.7495C190.268 55.9393 191.483 56.3086 192.626 56.8458C193.942 57.421 194.844 58.6431 191.868 56.0191C192.616 56.7687 193.297 57.5804 193.906 58.4454C198.937 64.8078 201.642 73.9739 199.316 81.81C194.627 97.8237 171.745 103.09 157.698 105.876C148.436 107.753 139.032 108.847 129.586 109.147C131.101 109.147 132.742 112.741 134.328 112.741H134.4Z" fill="#1647BE"/>
<path d="M130.668 110.296C119.445 112.35 109.476 118.705 102.899 128C99.428 133.497 97.0184 139.592 95.7945 145.972C93.0536 159.434 99.1124 171.26 102.304 183.931C103.432 188.43 103.701 193.1 103.097 197.698C102.888 199.089 102.563 200.459 102.124 201.796C103.206 198.201 102.124 201.023 101.637 201.796C100.577 203.48 99.3243 205.036 97.9042 206.433C92.2241 212.22 84.0376 215.113 76.2658 216.695C63.0845 219.355 43.5739 219.121 32.8989 209.596C33.1514 209.829 35.2611 214.988 35.2611 214.988C33.0474 215.795 30.8908 216.75 28.8057 217.845C39.3544 227.263 59.46 227.766 72.5693 225.592C80.5935 224.28 90.3488 220.2 96.3535 213.604C100.465 209.057 101.907 203.018 103.891 197.428C111.32 176.167 94.6224 153.09 107.497 132.726C113.304 123.506 121.4 116.551 132.093 114.754C133.139 114.574 129.731 110.476 130.704 110.296H130.668Z" fill="#1647BE"/>
<path d="M-12.9751 175.645C-15.3192 182.655 -13.9488 178.162 -12.6866 175.753C-11.3118 173.216 -9.70624 170.809 -7.89007 168.564C-3.33757 162.84 3.01323 158.808 10.1419 157.116C21.1595 154.563 30.5 161.357 40.1111 166.336C50.0287 171.476 63.5527 175.681 74.7144 174.998C93.1972 173.848 108.975 158.445 119.542 143.78C126.178 134.56 133.012 120.415 131.443 108.679C131.241 107.272 130.847 105.899 130.271 104.599C130.812 105.875 127.566 108.805 128.125 110.135C130.56 115.832 129.478 122.302 127.656 128C126.701 131.019 129.135 124.567 127.837 127.568C127.35 128.665 126.809 129.725 126.25 130.785C125.384 132.583 124.447 134.146 123.347 135.764C120.957 139.48 118.216 142.958 115.16 146.152C108.765 153.166 100.764 158.537 91.8379 161.807C82.9123 165.077 73.3262 166.15 63.8953 164.934C43.1945 162.022 24.6036 141.317 3.28976 153.323C-6.14097 158.715 -10.8834 169.912 -14.5439 179.635C-14.7061 180.085 -14.8684 180.516 -15.0127 180.965C-14.5799 179.653 -13.516 177.371 -12.9571 175.574L-12.9751 175.645Z" fill="#1647BE"/>
<path d="M138.764 111.321C138.764 111.159 138.764 110.998 138.764 110.872C135.392 97.5539 115.142 101.005 115.917 114.269C116.043 116.066 116.476 119.373 118.748 119.948C121.651 120.703 125.186 118.6 127.963 118.043C130.739 117.486 134.328 118.169 137.141 116.965C139.088 116.048 139.034 113.118 138.764 111.321Z" fill="#1647BE"/>
</mask>
<g mask="url(#mask0_53_1345)">
<path d="M237.128 516.122L20.5457 510.101L7.63477 659.275H249.822L237.128 516.122Z" fill="#2825D1"/>
<path d="M20.5457 510.101L7.63477 659.275L141.486 659.383V515.223L20.5457 510.101Z" fill="#2A1FAD"/>
<path d="M1.38255 455.504L-3.06934 512.521L256.114 532.625L260.566 475.608L1.38255 455.504Z" fill="#2171BA"/>
<path d="M133.066 457.243C140.73 449.263 148.754 437.257 157.932 431.075C169.293 423.436 190.39 414.576 202.724 425.575C210.514 432.549 212.479 453.397 204.996 462.186C196.827 471.765 178.345 475.288 167.129 474.91C155.426 474.533 143.471 472.772 132.327 466.391C132.111 466.265 132.976 460.999 132.796 460.999C141.695 462.735 150.691 463.936 159.736 464.594C172.935 465.672 189.038 466.697 201.083 460.173C203.236 458.99 205.086 457.33 206.493 455.32C207.148 454.337 207.658 453.266 208.007 452.139C208.422 450.863 208.007 449.443 208.097 453.181C208.071 452.203 207.963 451.229 207.773 450.27C206.529 442.847 201.876 435.262 194.97 431.919C180.977 425.144 163.053 437.563 152.361 445.489C145.276 450.684 138.641 456.461 132.525 462.761C133.499 461.754 131.966 458.321 132.976 457.279L133.066 457.243Z" fill="#2A1FAD"/>
<path d="M126.214 465.672C115.142 465.367 100.825 467.47 90.1501 464.881C76.8245 461.61 56.0516 451.941 55.9795 435.478C55.9795 425.036 70.1166 409.597 81.657 409.22C94.2794 408.824 109.3 420.111 116.585 428.666C124.158 437.653 130.866 447.574 133.589 460.083C133.589 460.334 129.117 463.282 129.207 463.444C124.541 455.685 119.41 448.213 113.844 441.068C105.766 430.607 95.722 418.026 82.7931 413.515C80.4809 412.706 78.015 412.43 75.5803 412.707C74.4033 412.894 73.2569 413.239 72.1722 413.731C70.9641 414.27 70.1346 415.528 72.8935 412.958C72.1876 413.637 71.5364 414.37 70.946 415.151C66.2577 421.064 63.7332 429.529 65.8971 436.934C70.2608 451.815 91.5386 456.704 104.594 459.292C113.209 461.03 121.955 462.046 130.74 462.329C129.334 462.329 127.819 465.708 126.358 465.672H126.214Z" fill="#2A1FAD"/>
<path d="M122.066 464.306C122.066 464.162 122.066 464.019 122.157 463.893C125.276 451.51 144.101 454.727 143.38 467.056C143.272 468.853 142.875 471.783 140.766 472.34C138.061 473.023 134.761 471.082 132.182 470.543C129.604 470.003 126.268 470.668 123.653 469.536C121.778 468.709 121.778 465.978 122.066 464.306Z" fill="#2A1FAD"/>
<path d="M329.236 594.321L233.162 584.868L228.239 659.616L333.744 667.165L329.236 594.321Z" fill="#355FF2"/>
<path d="M222.489 554.158L219.578 586.036L339.41 596.906L342.321 565.028L222.489 554.158Z" fill="#1784E8"/>
<path d="M279.216 561.09C274.058 560.119 267.17 560.047 262.338 557.998C256.315 555.464 247.317 549.371 248.525 541.643C249.283 536.737 257.108 530.554 262.554 531.255C268.505 532.01 274.708 538.444 277.466 542.991C280.653 547.783 282.581 553.295 283.074 559.023C283.074 559.149 280.73 560.191 280.766 560.263C279.155 556.278 277.312 552.389 275.249 548.617C272.255 543.099 268.487 536.449 262.752 533.358C261.72 532.798 260.573 532.478 259.398 532.423C258.837 532.42 258.278 532.499 257.74 532.657C257.126 532.819 256.64 533.322 258.118 532.333C257.737 532.608 257.376 532.908 257.036 533.232C255.659 534.456 254.582 535.979 253.888 537.684C253.194 539.388 252.902 541.228 253.033 543.063C253.953 550.378 263.564 554.278 269.496 556.471C273.41 557.929 277.439 559.059 281.542 559.849C280.875 559.724 279.901 561.215 279.216 561.09Z" fill="#1B43D1"/>
<path d="M-106.796 572.448L28.0293 563.156L34.7733 659.616L-112.927 665.907L-106.796 572.448Z" fill="#8092C2"/>
<path d="M41.7237 523.639L-124.304 542.815L-119.795 581.592L46.2321 562.416L41.7237 523.639Z" fill="#6787AD"/>
<path d="M-41.9695 534.724C-34.9731 533.196 -25.5964 532.819 -19.0869 529.817C-11.0086 526.115 0.964691 517.452 -0.838509 506.956C-2.10075 500.306 -13.0101 492.2 -20.4032 493.368C-28.4816 494.662 -36.632 503.667 -40.2384 509.993C-44.3709 516.657 -46.7695 524.243 -47.2168 532.064C-47.2168 532.243 -43.971 533.555 -44.0071 533.663C-41.9901 528.136 -39.6417 522.734 -36.9746 517.488C-33.1158 509.849 -28.2652 500.611 -20.5835 496.172C-19.197 495.363 -17.6421 494.883 -16.0395 494.77C-15.2692 494.749 -14.4994 494.828 -13.7494 495.004C-12.92 495.202 -12.2347 495.885 -14.3084 494.608C-13.7727 494.95 -13.2661 495.335 -12.7937 495.759C-10.8613 497.37 -9.32623 499.403 -8.30698 501.699C-7.28775 503.996 -6.8116 506.495 -6.91529 509.005C-7.87099 519.015 -20.7999 524.713 -28.8061 527.948C-34.0641 530.1 -39.4924 531.814 -45.0349 533.07C-44.1514 532.854 -42.7629 534.867 -41.8252 534.652L-41.9695 534.724Z" fill="#607AA1"/>
<rect x="-183.576" y="-102.397" width="760.692" height="1023.04" fill="#0F3A9E"/>
</g>
</svg>
