<svg width="587" height="740" viewBox="0 0 587 740" fill="none" xmlns="http://www.w3.org/2000/svg">
<mask id="mask0_53_916" style="mask-type:alpha" maskUnits="userSpaceOnUse" x="0" y="0" width="741" height="740">
<g clip-path="url(#clip0_53_916)">
<path d="M98.6577 439.122C98.6577 439.122 124.1 457.186 164.242 440.785V437.623C164.242 437.623 141.116 443.102 123.074 434.82C120.748 433.762 118.538 432.462 116.484 430.945L98.6577 439.122Z" fill="#D8A432"/>
<path opacity="0.35" d="M98.6574 439.122C110.506 435.652 123.074 434.821 123.074 434.821C120.747 433.762 118.538 432.462 116.483 430.945L98.6574 439.122Z" fill="black"/>
<path d="M247.069 439.121C247.069 439.121 221.628 457.185 181.485 440.783V437.621C181.485 437.621 204.611 443.1 222.652 434.819C224.979 433.761 227.188 432.464 229.243 430.948L247.069 439.121Z" fill="#D8A432"/>
<path opacity="0.35" d="M247.069 439.121C235.221 435.652 222.652 434.821 222.652 434.821C224.979 433.762 227.188 432.465 229.244 430.948L247.069 439.121Z" fill="black"/>
<path d="M126.38 402.764C126.38 402.764 126.508 404.344 127.189 406.89C129.341 414.93 137.025 431.23 163.709 439.12H166.729C166.729 439.12 146.601 428.326 142.271 410.135C141.872 408.469 141.618 406.771 141.512 405.061C141.497 404.843 141.487 404.624 141.478 404.405L141.151 404.37L126.38 402.764Z" fill="#D8A432"/>
<path opacity="0.35" d="M126.38 402.764C126.38 402.764 126.508 404.344 127.189 406.89C134.041 406.599 142.15 410.082 142.271 410.134C141.871 408.467 141.617 406.77 141.512 405.06L141.15 404.368L126.38 402.764Z" fill="black"/>
<path d="M174.691 439.121C174.691 439.121 165.084 403.585 144.772 390.191L126.381 402.764C126.381 402.764 155.751 411.238 170.025 439.12L174.691 439.121Z" fill="#FFC436"/>
<path opacity="0.36" d="M147.334 392.04C149.355 393.638 151.244 395.394 152.983 397.293L139.14 408.337C136.449 406.862 133.678 405.54 130.838 404.376L147.334 392.04Z" fill="white"/>
<path opacity="0.36" d="M141.941 409.937L154.57 399.083C154.972 399.555 155.369 400.034 155.759 400.52L144.047 411.238C143.336 410.785 142.634 410.351 141.941 409.937Z" fill="white"/>
<path d="M171.036 439.122C171.036 439.122 141.752 418.62 107.716 420.944L98.6575 439.122C98.6575 439.122 130.224 423.54 165.908 439.122H171.036Z" fill="#FFC436"/>
<path opacity="0.36" d="M120.973 421.126C121.894 421.21 122.809 421.309 123.716 421.421L119.227 433.229C118.05 433.411 116.913 433.609 115.817 433.823L120.973 421.126Z" fill="white"/>
<path opacity="0.36" d="M111.498 420.777C114.274 420.721 117.011 420.809 119.696 421.017L114.066 434.178C110.466 434.945 106.919 435.946 103.451 437.175L111.498 420.777Z" fill="white"/>
<path d="M219.346 402.764C219.346 402.764 219.218 404.344 218.538 406.89C216.386 414.93 208.701 431.23 182.018 439.12H178.999C178.999 439.12 199.125 428.326 203.456 410.135C203.855 408.469 204.109 406.771 204.215 405.061C204.229 404.841 204.241 404.623 204.249 404.405L204.575 404.37L219.346 402.764Z" fill="#D8A432"/>
<path opacity="0.35" d="M219.346 402.764C219.346 402.764 219.218 404.344 218.538 406.89C211.685 406.599 203.577 410.082 203.456 410.134C203.855 408.467 204.109 406.77 204.215 405.06L204.576 404.368L219.346 402.764Z" fill="black"/>
<path d="M171.036 439.121C171.036 439.121 180.642 403.585 200.955 390.191L219.346 402.764C219.346 402.764 189.975 411.238 175.702 439.12L171.036 439.121Z" fill="#FFC436"/>
<path opacity="0.36" d="M198.392 392.04C196.371 393.638 194.482 395.394 192.743 397.293L206.587 408.337C209.277 406.862 212.049 405.54 214.889 404.376L198.392 392.04Z" fill="white"/>
<path opacity="0.36" d="M203.785 409.937L191.156 399.083C190.754 399.555 190.358 400.034 189.968 400.52L201.677 411.238C202.39 410.785 203.092 410.351 203.785 409.937Z" fill="white"/>
<path d="M174.692 439.122C174.692 439.122 203.974 418.62 238.012 420.944L247.069 439.122C247.069 439.122 215.503 423.54 179.82 439.122H174.692Z" fill="#FFC436"/>
<path opacity="0.36" d="M224.753 421.126C223.833 421.21 222.919 421.309 222.011 421.421L226.5 433.229C227.677 433.411 228.813 433.609 229.909 433.823L224.753 421.126Z" fill="white"/>
<path opacity="0.36" d="M234.229 420.777C231.453 420.721 228.716 420.809 226.031 421.017L231.661 434.178C235.261 434.945 238.807 435.946 242.275 437.175L234.229 420.777Z" fill="white"/>
<path d="M83.421 440.791H262.306V482.737H83.421V440.791Z" fill="#06B5A8"/>
<path d="M91.0253 482.738H254.702V624.676H91.0253V482.738Z" fill="#06B5A8"/>
<path opacity="0.2" d="M83.4208 440.791H173.204V482.737H83.4208V440.791Z" fill="black"/>
<path opacity="0.2" d="M91.0257 482.738H173.204V624.676H91.0257V482.738Z" fill="black"/>
<path d="M205.532 440.79H224.247V624.676H205.532V440.79Z" fill="#FFC436"/>
<path d="M120.624 440.79H139.34V624.676H120.624V440.79Z" fill="#FFC436"/>
<path opacity="0.2" d="M91.0247 482.737H254.702V492.842H91.0247V482.737Z" fill="black"/>
<g opacity="0.75">
<path opacity="0.36" d="M166.728 441.545L169.273 442.799C169.273 442.799 157.02 449.47 151.091 464.825H151.095C150.835 465.499 150.587 466.189 150.351 466.895C150.189 467.383 150.035 467.879 149.887 468.384C149.489 469.732 149.146 471.138 148.86 472.603V472.608C148.78 473.018 148.705 473.433 148.636 473.852L148.612 473.995C148.593 474.111 148.574 474.228 148.555 474.344C148.547 474.399 148.539 474.455 148.53 474.51C148.49 474.769 148.453 475.029 148.417 475.292C147.966 478.592 147.82 482.173 148.082 486.037L141.153 478.363L134.315 484.157C134.315 484.157 128.163 458.635 166.728 441.545Z" fill="black"/>
<path opacity="0.36" d="M211.414 484.157L204.577 478.363L197.647 486.037C197.907 482.173 197.763 478.595 197.313 475.292C197.277 475.028 197.239 474.769 197.199 474.51L197.174 474.344C197.156 474.228 197.136 474.111 197.118 473.995L197.094 473.852C197.024 473.433 196.949 473.018 196.869 472.608V472.603C196.584 471.138 196.238 469.732 195.843 468.384C195.694 467.88 195.54 467.384 195.379 466.895H195.375C195.141 466.188 194.893 465.497 194.632 464.825H194.636C188.706 449.47 176.453 442.799 176.453 442.799L178.998 441.545C217.563 458.635 211.414 484.157 211.414 484.157Z" fill="black"/>
</g>
<path d="M168.772 439.866C168.772 439.866 142.271 454.293 144.618 489.145L136.72 480.398L128.928 487.002C128.928 487.002 121.921 457.914 165.871 438.438L168.772 439.866Z" fill="#FFC436"/>
<path opacity="0.36" d="M148.058 464.969C147.761 465.737 147.479 466.523 147.21 467.328L133.41 464.759C133.852 463.975 134.333 463.183 134.855 462.382L148.058 464.969Z" fill="white"/>
<path opacity="0.36" d="M146.676 469.025C145.919 471.609 145.358 474.246 144.997 476.913L129.692 473.785C130.38 471.233 131.332 468.758 132.532 466.4L146.676 469.025Z" fill="white"/>
<path d="M176.955 439.866C176.955 439.866 203.457 454.293 201.111 489.145L209.008 480.398L216.8 487.002C216.8 487.002 223.808 457.914 179.856 438.438L176.955 439.866Z" fill="#FFC436"/>
<path opacity="0.36" d="M197.672 464.969C197.969 465.737 198.251 466.523 198.52 467.328L212.315 464.759C211.874 463.975 211.392 463.183 210.87 462.382L197.672 464.969Z" fill="white"/>
<path opacity="0.36" d="M199.051 469.025C199.808 471.609 200.369 474.246 200.73 476.913L216.035 473.785C215.347 471.233 214.395 468.758 213.194 466.4L199.051 469.025Z" fill="white"/>
<path d="M172.864 445.61C167.93 445.61 163.93 442.929 163.93 439.622C163.93 436.315 167.93 433.634 172.864 433.634C177.798 433.634 181.798 436.315 181.798 439.622C181.798 442.929 177.798 445.61 172.864 445.61Z" fill="#D8A432"/>
<path opacity="0.13" d="M170.958 433.772C169.11 434.869 167.944 436.471 167.944 438.255C167.944 441.563 171.944 444.244 176.878 444.244C177.515 444.244 178.152 444.198 178.783 444.106C177.207 445.042 175.135 445.611 172.863 445.611C167.93 445.611 163.93 442.93 163.93 439.623C163.93 436.756 166.94 434.358 170.958 433.772Z" fill="black"/>
<path d="M491.217 333.725C491.217 333.725 451.31 362.058 388.347 336.335V331.375C388.347 331.375 424.621 339.971 452.918 326.979C456.524 325.325 460.001 323.318 463.258 320.9L491.217 333.725Z" fill="#C10202"/>
<path opacity="0.35" d="M491.217 333.725C472.631 328.283 452.918 326.979 452.918 326.979C456.525 325.325 460.001 323.318 463.258 320.9L491.217 333.725Z" fill="black"/>
<path d="M258.431 333.725C258.431 333.725 298.338 362.058 361.302 336.335V331.375C361.302 331.375 325.025 339.971 296.73 326.979C293.124 325.325 289.647 323.318 286.39 320.9L258.431 333.725Z" fill="#C10202"/>
<path opacity="0.35" d="M258.431 333.725C277.017 328.283 296.729 326.979 296.729 326.979C293.123 325.325 289.647 323.318 286.39 320.9L258.431 333.725Z" fill="black"/>
<path d="M447.732 276.7C447.732 276.7 447.534 279.179 446.464 283.173C443.089 295.78 431.036 321.349 389.179 333.725H384.443C384.443 333.725 416.012 316.793 422.807 288.262C423.433 285.648 423.833 282.986 424 280.304C424.023 279.961 424.041 279.618 424.053 279.275L424.566 279.219L447.732 276.7Z" fill="#C10202"/>
<path opacity="0.35" d="M447.732 276.7C447.732 276.7 447.534 279.179 446.464 283.172C435.716 282.716 423.002 288.177 422.809 288.259C423.436 285.646 423.835 282.984 424.002 280.302L424.568 279.217L447.732 276.7Z" fill="black"/>
<path d="M371.957 333.725C371.957 333.725 387.027 277.987 418.883 256.978L447.729 276.7C447.729 276.7 401.664 289.992 379.277 333.725H371.957Z" fill="#DC0000"/>
<path opacity="0.36" d="M414.866 259.878C411.735 262.33 408.783 265.11 406.005 268.116L427.719 285.44C431.938 283.129 436.286 281.058 440.74 279.235L414.866 259.878Z" fill="white"/>
<path opacity="0.36" d="M423.325 287.951L403.517 270.924C402.885 271.665 402.264 272.417 401.653 273.18L420.02 289.992C421.137 289.281 422.239 288.6 423.325 287.951Z" fill="white"/>
<path d="M377.69 333.725C377.69 333.725 423.622 301.569 477.009 305.211L491.217 333.725C491.217 333.725 441.706 309.286 385.734 333.725H377.69Z" fill="#DC0000"/>
<path opacity="0.36" d="M456.214 305.499C454.769 305.631 453.335 305.785 451.912 305.961L458.953 324.481C460.799 324.766 462.581 325.076 464.3 325.41L456.214 305.499Z" fill="white"/>
<path opacity="0.36" d="M471.076 304.952C466.722 304.864 462.429 305.002 458.218 305.328L467.049 325.972C472.696 327.174 478.258 328.745 483.699 330.673L471.076 304.952Z" fill="white"/>
<path d="M301.915 276.7C301.915 276.7 302.114 279.179 303.183 283.173C306.559 295.78 318.612 321.349 360.469 333.725H365.205C365.205 333.725 333.636 316.793 326.842 288.262C326.215 285.648 325.816 282.986 325.649 280.304C325.626 279.961 325.609 279.618 325.595 279.275L325.083 279.219L301.915 276.7Z" fill="#C10202"/>
<path opacity="0.35" d="M301.915 276.7C301.915 276.7 302.114 279.179 303.183 283.172C313.932 282.716 326.65 288.177 326.84 288.259C326.213 285.646 325.814 282.984 325.647 280.302L325.081 279.217L301.915 276.7Z" fill="black"/>
<path d="M377.69 333.725C377.69 333.725 362.622 277.987 330.764 256.978L301.918 276.7C301.918 276.7 347.982 289.992 370.374 333.725H377.69Z" fill="#DC0000"/>
<path opacity="0.36" d="M334.782 259.878C337.912 262.33 340.864 265.11 343.643 268.116L321.928 285.44C317.709 283.129 313.362 281.058 308.908 279.235L334.782 259.878Z" fill="white"/>
<path opacity="0.36" d="M326.323 287.951L346.132 270.924C346.763 271.665 347.385 272.417 347.996 273.18L329.628 289.992C328.511 289.281 327.41 288.6 326.323 287.951Z" fill="white"/>
<path d="M371.957 333.725C371.957 333.725 326.025 301.569 272.639 305.211L258.431 333.725C258.431 333.725 307.942 309.286 363.914 333.725H371.957Z" fill="#DC0000"/>
<path opacity="0.36" d="M293.435 305.499C294.88 305.631 296.313 305.785 297.736 305.961L290.692 324.481C288.846 324.766 287.063 325.076 285.344 325.41L293.435 305.499Z" fill="white"/>
<path opacity="0.36" d="M278.572 304.952C282.925 304.864 287.219 305.002 291.43 305.328L282.599 325.972C275.724 327.448 270.059 329.207 265.95 330.673L278.572 304.952Z" fill="white"/>
<path d="M515.114 402.137L234.533 402.137V336.344H515.114V402.137Z" fill="#E2E2E2"/>
<path d="M503.187 589.137H246.459L246.459 402.137H503.187V589.137Z" fill="#E2E2E2"/>
<path opacity="0.2" d="M374.289 336.344H515.114V402.137H374.289V336.344Z" fill="black"/>
<path opacity="0.2" d="M374.288 402.137H503.188V589.137H374.288V402.137Z" fill="black"/>
<path d="M323.586 589.137H294.229L294.229 336.343H323.586L323.586 589.137Z" fill="#DC0000"/>
<path d="M456.763 589.137H427.406L427.406 336.343H456.763L456.763 589.137Z" fill="#DC0000"/>
<path opacity="0.2" d="M503.187 417.986L246.459 417.986V402.137L503.187 402.137V417.986Z" fill="black"/>
<g opacity="0.75">
<path opacity="0.36" d="M384.447 337.527L380.454 339.492C380.454 339.492 399.675 349.955 408.974 374.039H408.967C409.376 375.095 409.764 376.177 410.134 377.287H410.139C410.392 378.053 410.635 378.832 410.868 379.623C411.489 381.736 412.031 383.943 412.478 386.24V386.248C412.603 386.891 412.721 387.542 412.831 388.199C412.843 388.275 412.856 388.35 412.868 388.425C412.898 388.607 412.927 388.789 412.956 388.972L412.996 389.232C413.058 389.638 413.117 390.047 413.173 390.458C413.88 395.638 414.107 401.251 413.699 407.313L424.569 395.275L435.293 404.364C435.293 404.364 444.935 364.332 384.447 337.527Z" fill="black"/>
<path opacity="0.36" d="M314.354 404.365L325.078 395.275L335.948 407.313C335.539 401.251 335.766 395.639 336.472 390.458C336.529 390.047 336.588 389.638 336.651 389.232L336.691 388.972C336.719 388.79 336.748 388.607 336.778 388.425L336.816 388.2C336.926 387.543 337.043 386.892 337.168 386.249C337.168 386.246 337.168 386.243 337.168 386.24C337.616 383.943 338.158 381.738 338.779 379.624C339.012 378.832 339.255 378.053 339.508 377.287H339.512C339.88 376.177 340.269 375.094 340.679 374.039H340.673C349.974 349.955 369.193 339.492 369.193 339.492L365.201 337.527C304.712 364.332 314.354 404.365 314.354 404.365Z" fill="black"/>
</g>
<path d="M381.241 334.894C381.241 334.894 422.808 357.521 419.128 412.186L431.515 398.466L443.737 408.825C443.737 408.825 454.729 363.201 385.791 332.655L381.241 334.894Z" fill="#DC0000"/>
<path opacity="0.36" d="M413.736 374.266C414.201 375.471 414.645 376.705 415.066 377.968L436.706 373.938C436.013 372.709 435.257 371.466 434.439 370.211L413.736 374.266Z" fill="white"/>
<path opacity="0.36" d="M415.9 380.63C417.087 384.683 417.967 388.819 418.533 393.003L442.539 388.098C441.459 384.094 439.966 380.212 438.084 376.515L415.9 380.63Z" fill="white"/>
<path d="M368.407 334.893C368.407 334.893 326.84 357.521 330.52 412.186L318.131 398.468L305.909 408.827C305.909 408.827 294.918 363.202 363.856 332.656L368.407 334.893Z" fill="#DC0000"/>
<path opacity="0.36" d="M335.912 374.266C335.447 375.471 335.004 376.705 334.583 377.968L312.944 373.938C313.638 372.709 314.394 371.466 315.211 370.211L335.912 374.266Z" fill="white"/>
<path opacity="0.36" d="M333.748 380.63C332.561 384.683 331.68 388.819 331.115 393.003L307.109 388.098C308.188 384.094 309.681 380.212 311.564 376.515L333.748 380.63Z" fill="white"/>
<path d="M374.824 343.904C367.085 343.904 360.811 339.699 360.811 334.511C360.811 329.324 367.085 325.119 374.824 325.119C382.563 325.119 388.837 329.324 388.837 334.511C388.837 339.699 382.563 343.904 374.824 343.904Z" fill="#C10202"/>
<path opacity="0.13" d="M377.813 325.335C380.711 327.056 382.54 329.568 382.54 332.367C382.54 337.555 376.266 341.76 368.527 341.76C367.527 341.76 366.528 341.688 365.538 341.543C368.01 343.011 371.261 343.904 374.824 343.904C382.563 343.904 388.837 339.699 388.837 334.512C388.837 330.012 384.115 326.253 377.813 325.335Z" fill="black"/>
<path d="M242.331 582.865C242.331 582.865 266.921 600.324 305.723 584.473V581.417C305.723 581.417 283.37 586.714 265.931 578.711C263.682 577.687 261.547 576.431 259.56 574.964L242.331 582.865Z" fill="#C12F72"/>
<path opacity="0.35" d="M242.331 582.864C253.784 579.511 265.932 578.706 265.932 578.706C263.682 577.683 261.547 576.427 259.561 574.96L242.331 582.864Z" fill="black"/>
<path d="M385.779 582.865C385.779 582.865 361.189 600.324 322.388 584.473V581.417C322.388 581.417 344.741 586.714 362.179 578.711C364.428 577.687 366.563 576.431 368.55 574.964L385.779 582.865Z" fill="#C12F72"/>
<path opacity="0.35" d="M385.779 582.864C374.327 579.511 362.179 578.706 362.179 578.706C364.428 577.683 366.563 576.427 368.55 574.96L385.779 582.864Z" fill="black"/>
<path d="M269.128 547.724C269.128 547.724 269.251 549.251 269.909 551.712C271.989 559.482 279.417 575.238 305.211 582.867H308.127C308.127 582.867 288.673 572.433 284.486 554.851C284.1 553.24 283.855 551.6 283.753 549.947C283.738 549.736 283.727 549.525 283.719 549.313L283.404 549.279L269.128 547.724Z" fill="#C12F72"/>
<path opacity="0.35" d="M269.127 547.724C269.127 547.724 269.251 549.251 269.908 551.712C276.532 551.431 284.369 554.797 284.485 554.847C284.1 553.236 283.855 551.596 283.752 549.943L283.403 549.275L269.127 547.724Z" fill="black"/>
<path d="M315.821 582.864C315.821 582.864 306.535 548.516 286.903 535.57L269.127 547.724C269.127 547.724 297.517 555.915 311.312 582.864H315.821Z" fill="#E2387F"/>
<path opacity="0.36" d="M289.38 537.358C291.333 538.902 293.159 540.6 294.84 542.434L281.459 553.109C278.859 551.685 276.181 550.408 273.436 549.285L289.38 537.358Z" fill="white"/>
<path opacity="0.36" d="M284.167 554.656L296.374 544.166C296.763 544.622 297.146 545.085 297.522 545.555L286.204 555.917C285.516 555.477 284.837 555.057 284.167 554.656Z" fill="white"/>
<path d="M312.288 582.864C312.288 582.864 283.987 563.048 251.086 565.294L242.331 582.864C242.331 582.864 272.842 567.804 307.332 582.864H312.288Z" fill="#E2387F"/>
<path opacity="0.36" d="M263.9 565.47C264.79 565.553 265.674 565.648 266.552 565.756L262.212 577.169C261.075 577.345 259.977 577.536 258.917 577.741L263.9 565.47Z" fill="white"/>
<path opacity="0.36" d="M254.742 565.137C257.425 565.082 260.071 565.168 262.666 565.368L257.224 578.091C253.744 578.831 250.317 579.799 246.964 580.987L254.742 565.137Z" fill="white"/>
<path d="M358.983 547.724C358.983 547.724 358.86 549.251 358.203 551.712C356.122 559.482 348.695 575.238 322.901 582.867H319.985C319.985 582.867 339.439 572.433 343.626 554.851C344.011 553.24 344.256 551.6 344.359 549.947C344.373 549.736 344.384 549.525 344.392 549.313L344.708 549.279L358.983 547.724Z" fill="#C12F72"/>
<path opacity="0.35" d="M358.983 547.724C358.983 547.724 358.86 549.251 358.203 551.712C351.578 551.431 343.741 554.797 343.625 554.847C344.01 553.236 344.255 551.596 344.358 549.943L344.707 549.275L358.983 547.724Z" fill="black"/>
<path d="M312.289 582.864C312.289 582.864 321.578 548.516 341.208 535.57L358.983 547.724C358.983 547.724 330.592 555.915 316.799 582.864H312.289Z" fill="#E2387F"/>
<path opacity="0.36" d="M338.731 537.358C336.778 538.902 334.952 540.6 333.271 542.434L346.652 553.109C349.252 551.685 351.931 550.408 354.676 549.285L338.731 537.358Z" fill="white"/>
<path opacity="0.36" d="M343.943 554.656L331.736 544.166C331.348 544.622 330.965 545.085 330.588 545.555L341.907 555.917C342.595 555.477 343.274 555.057 343.943 554.656Z" fill="white"/>
<path d="M315.822 582.864C315.822 582.864 344.123 563.048 377.025 565.294L385.78 582.864C385.78 582.864 355.269 567.804 320.779 582.864H315.822Z" fill="#E2387F"/>
<path opacity="0.36" d="M364.211 565.47C363.321 565.553 362.437 565.648 361.559 565.756L365.899 577.169C367.036 577.345 368.134 577.536 369.193 577.741L364.211 565.47Z" fill="white"/>
<path opacity="0.36" d="M373.368 565.137C370.685 565.082 368.04 565.168 365.445 565.368L370.886 578.091C374.366 578.831 377.793 579.799 381.146 580.987L373.368 565.137Z" fill="white"/>
<path d="M227.605 584.477H400.507V625.022H227.605V584.477Z" fill="#5F4D89"/>
<path d="M234.954 625.023H393.157V740.257H234.954V625.023Z" fill="#5F4D89"/>
<path d="M400.507 594.283V603.734L381.172 584.478H390.661L400.507 594.283Z" fill="#BCB7CD"/>
<path d="M400.507 621.058V625.021H394.998L354.285 584.478H363.775L400.507 621.058Z" fill="#BCB7CD"/>
<path d="M327.399 584.478H336.888L393.157 640.514V649.963L327.399 584.478Z" fill="#BCB7CD"/>
<path d="M300.512 584.478H310.001L393.157 667.289V676.739L300.512 584.478Z" fill="#BCB7CD"/>
<path d="M273.627 584.478H283.116L393.157 694.064V703.514L273.627 584.478Z" fill="#BCB7CD"/>
<path d="M393.157 730.289L246.74 584.478H256.23L393.157 720.839V730.289Z" fill="#BCB7CD"/>
<path d="M385.77 740.257H376.28L227.605 592.196V584.478H229.343L385.77 740.257Z" fill="#BCB7CD"/>
<path d="M227.605 609.522V618.971L233.332 624.676L233.68 625.022H234.954V626.289L292.45 683.547L305.011 696.056L323.102 714.073L349.395 740.257H358.883L305.011 686.607L292.45 674.099L252.976 634.788L243.17 625.022L227.605 609.522Z" fill="#BCB7CD"/>
<path d="M234.953 643.615V653.065L322.507 740.257H331.997L234.953 643.615Z" fill="#BCB7CD"/>
<path d="M234.953 670.392V679.84L295.621 740.257H305.109L305.01 740.158L292.163 727.364L234.953 670.392Z" fill="#BCB7CD"/>
<path d="M234.954 697.166V706.616L268.735 740.257H278.225L265.278 727.364L234.954 697.166Z" fill="#BCB7CD"/>
<path d="M234.953 723.939V733.39L241.849 740.257H251.339L234.953 723.939Z" fill="#BCB7CD"/>
<path d="M305.01 584.478H323.101V740.257H305.01V584.478Z" fill="#E2387F"/>
<path opacity="0.2" d="M234.954 625.023H393.157V634.789H234.954V625.023Z" fill="black"/>
<g opacity="0.75">
<path opacity="0.36" d="M308.123 585.207L310.583 586.418C310.583 586.418 298.742 592.865 293.011 607.71H293.015C292.764 608.361 292.524 609.028 292.296 609.711C292.14 610.183 291.99 610.663 291.847 611.152C291.464 612.455 291.13 613.814 290.853 615.229V615.234C290.775 615.63 290.703 616.031 290.635 616.437C290.628 616.483 290.62 616.529 290.612 616.575C290.594 616.687 290.575 616.8 290.558 616.913C290.55 616.965 290.542 617.019 290.534 617.073C290.495 617.323 290.459 617.575 290.424 617.828C289.965 621.271 289.856 624.75 290.1 628.215L283.406 620.796L276.797 626.398C276.797 626.398 270.85 601.725 308.123 585.207Z" fill="black"/>
<path opacity="0.36" d="M351.317 626.394L344.708 620.793L338.014 628.211C338.258 624.747 338.149 621.267 337.69 617.825C337.655 617.571 337.619 617.32 337.58 617.07C337.572 617.016 337.564 616.962 337.556 616.909C337.538 616.796 337.52 616.684 337.502 616.572C337.494 616.526 337.486 616.48 337.479 616.433C337.411 616.028 337.339 615.627 337.261 615.231V615.226C336.986 613.81 336.652 612.454 336.267 611.148C336.124 610.66 335.974 610.18 335.818 609.708C335.591 609.024 335.352 608.357 335.099 607.707H335.098C329.367 592.865 317.523 586.418 317.523 586.418L319.986 585.207C357.26 601.725 351.317 626.394 351.317 626.394Z" fill="black"/>
</g>
<path d="M310.102 583.584C310.102 583.584 284.487 597.528 286.755 631.215L279.121 622.76L271.59 629.143C271.59 629.143 264.817 601.028 307.298 582.202L310.102 583.584Z" fill="#E2387F"/>
<path opacity="0.36" d="M290.077 607.847C289.79 608.59 289.517 609.35 289.257 610.128L275.923 607.644C276.351 606.888 276.816 606.122 277.32 605.349L290.077 607.847Z" fill="white"/>
<path opacity="0.36" d="M288.743 611.768C288.012 614.266 287.469 616.815 287.121 619.393L272.328 616.372C272.994 613.904 273.914 611.512 275.074 609.233L288.743 611.768Z" fill="white"/>
<path d="M318.01 583.584C318.01 583.584 343.625 597.528 341.357 631.215L348.991 622.76L356.522 629.143C356.522 629.143 363.295 601.028 320.814 582.202L318.01 583.584Z" fill="#E2387F"/>
<path opacity="0.36" d="M338.035 607.847C338.322 608.59 338.595 609.35 338.854 610.128L352.188 607.644C351.76 606.888 351.295 606.122 350.79 605.349L338.035 607.847Z" fill="white"/>
<path opacity="0.36" d="M339.368 611.768C340.1 614.266 340.642 616.815 340.991 619.393L355.784 616.372C355.119 613.904 354.199 611.512 353.039 609.233L339.368 611.768Z" fill="white"/>
<path d="M314.055 589.138C309.287 589.138 305.421 586.546 305.421 583.349C305.421 580.152 309.287 577.561 314.055 577.561C318.824 577.561 322.69 580.152 322.69 583.349C322.69 586.546 318.824 589.138 314.055 589.138Z" fill="#C12F72"/>
<path opacity="0.13" d="M312.214 577.695C310.427 578.755 309.301 580.303 309.301 582.028C309.301 585.224 313.167 587.815 317.935 587.815C318.552 587.816 319.167 587.772 319.777 587.683C318.253 588.588 316.251 589.135 314.055 589.135C309.283 589.135 305.421 586.544 305.421 583.348C305.421 580.576 308.33 578.26 312.214 577.695Z" fill="black"/>
<path d="M393.045 240.537C393.045 240.537 425.695 263.718 477.211 242.672V238.614C477.211 238.614 447.532 245.647 424.377 235.017C421.39 233.658 418.555 231.991 415.918 230.043L393.045 240.537Z" fill="#E08E0F"/>
<path opacity="0.35" d="M393.045 240.537C408.251 236.084 424.377 235.017 424.377 235.017C421.391 233.658 418.556 231.991 415.918 230.043L393.045 240.537Z" fill="black"/>
<path d="M583.505 240.537C583.505 240.537 550.854 263.718 499.34 242.672V238.614C499.34 238.614 529.017 245.647 552.17 235.017C555.156 233.658 557.991 231.991 560.629 230.043L583.505 240.537Z" fill="#E08E0F"/>
<path opacity="0.35" d="M583.505 240.537C568.299 236.084 552.17 235.017 552.17 235.017C555.156 233.658 557.991 231.991 560.629 230.043L583.505 240.537Z" fill="black"/>
<path d="M428.623 193.88C428.623 193.88 428.787 195.908 429.66 199.176C432.422 209.493 442.283 230.411 476.53 240.537H480.405C480.405 240.537 454.575 226.684 449.017 203.34C448.504 201.201 448.176 199.022 448.039 196.827C448.02 196.546 448.006 196.265 447.995 195.985L447.576 195.939L428.623 193.88Z" fill="#E08E0F"/>
<path opacity="0.35" d="M428.623 193.88C428.623 193.88 428.786 195.908 429.66 199.176C438.454 198.802 448.86 203.272 449.014 203.338C448.501 201.2 448.175 199.021 448.039 196.827L447.575 195.939L428.623 193.88Z" fill="black"/>
<path d="M490.621 240.537C490.621 240.537 478.293 194.933 452.225 177.743L428.624 193.88C428.624 193.88 466.316 204.755 484.63 240.537H490.621Z" fill="#FFC639"/>
<path opacity="0.36" d="M455.514 180.116C458.075 182.123 460.49 184.397 462.764 186.857L444.997 201.03C441.545 199.139 437.988 197.444 434.344 195.952L455.514 180.116Z" fill="white"/>
<path opacity="0.36" d="M448.593 203.084L464.8 189.157C465.316 189.764 465.824 190.38 466.324 191.005L451.296 204.76C450.383 204.174 449.482 203.615 448.593 203.084Z" fill="white"/>
<path d="M485.93 240.537C485.93 240.537 448.349 214.227 404.671 217.209L393.046 240.537C393.046 240.537 433.556 220.541 479.349 240.537H485.93Z" fill="#FFC639"/>
<path opacity="0.36" d="M421.683 217.442C422.865 217.551 424.038 217.677 425.203 217.821L419.441 232.975C417.931 233.207 416.473 233.46 415.067 233.735L421.683 217.442Z" fill="white"/>
<path opacity="0.36" d="M409.523 216.995C413.085 216.923 416.598 217.036 420.044 217.303L412.819 234.194C408.199 235.177 403.649 236.462 399.198 238.039L409.523 216.995Z" fill="white"/>
<path d="M547.928 193.88C547.928 193.88 547.764 195.908 546.89 199.176C544.129 209.493 534.267 230.411 500.02 240.537H496.145C496.145 240.537 521.975 226.684 527.533 203.34C528.046 201.201 528.373 199.022 528.509 196.827C528.528 196.546 528.543 196.265 528.553 195.985L528.972 195.939L547.928 193.88Z" fill="#E08E0F"/>
<path opacity="0.35" d="M547.928 193.88C547.928 193.88 547.764 195.908 546.89 199.176C538.096 198.802 527.69 203.272 527.536 203.338C528.048 201.2 528.374 199.021 528.509 196.827L528.973 195.939L547.928 193.88Z" fill="black"/>
<path d="M485.929 240.537C485.929 240.537 498.259 194.933 524.327 177.743L547.929 193.88C547.929 193.88 510.235 204.755 491.916 240.537H485.929Z" fill="#FFC639"/>
<path opacity="0.36" d="M521.036 180.116C518.475 182.123 516.059 184.397 513.788 186.86L531.551 201.033C535.004 199.142 538.561 197.447 542.205 195.956L521.036 180.116Z" fill="white"/>
<path opacity="0.36" d="M527.957 203.084L511.75 189.157C511.234 189.764 510.726 190.38 510.226 191.005L525.255 204.754C526.168 204.172 527.068 203.616 527.957 203.084Z" fill="white"/>
<path d="M490.621 240.537C490.621 240.537 528.201 214.227 571.879 217.209L583.505 240.537C583.505 240.537 542.995 220.541 497.202 240.537H490.621Z" fill="#FFC639"/>
<path opacity="0.36" d="M554.866 217.442C553.684 217.551 552.511 217.677 551.347 217.821L557.108 232.975C558.618 233.207 560.076 233.46 561.482 233.735L554.866 217.442Z" fill="white"/>
<path opacity="0.36" d="M567.027 216.995C563.464 216.923 559.952 217.036 556.506 217.303L563.731 234.194C568.351 235.177 572.901 236.462 577.352 238.039L567.027 216.995Z" fill="white"/>
<path d="M373.492 242.679H603.059V296.511H373.492V242.679Z" fill="#47B6D3"/>
<path d="M383.251 296.509H593.301V449.51H383.251V296.509Z" fill="#47B6D3"/>
<path opacity="0.2" d="M373.493 242.678V296.509H383.251V449.509H425.545V242.678H373.493Z" fill="black"/>
<path d="M497.992 242.678H522.011V449.51H497.992V242.678Z" fill="#FFC639"/>
<path d="M397.716 242.678H409.132V449.51H397.716V242.678Z" fill="#FFC639"/>
<path opacity="0.2" d="M383.25 296.51H593.301V309.477H383.25V296.51Z" fill="black"/>
<g opacity="0.75">
<path opacity="0.36" d="M480.403 243.647L483.669 245.255C483.669 245.255 467.944 253.816 460.334 273.521H460.34C460.005 274.386 459.687 275.271 459.385 276.178C459.177 276.805 458.979 277.443 458.789 278.093C458.281 279.823 457.837 281.627 457.471 283.505V283.512C457.369 284.04 457.273 284.572 457.183 285.108C457.173 285.17 457.162 285.231 457.152 285.292C457.127 285.441 457.103 285.59 457.08 285.739C457.069 285.811 457.059 285.882 457.047 285.952C456.997 286.283 456.948 286.619 456.902 286.956C456.324 291.195 456.139 295.787 456.472 300.746L447.575 290.896L438.802 298.333C438.802 298.333 430.911 265.579 480.403 243.647Z" fill="black"/>
<path opacity="0.36" d="M537.75 298.333L528.975 290.897L520.082 300.746C520.413 295.786 520.231 291.194 519.653 286.955C519.608 286.619 519.56 286.284 519.507 285.952C519.496 285.881 519.486 285.81 519.474 285.739C519.451 285.59 519.427 285.44 519.403 285.292C519.392 285.231 519.382 285.169 519.372 285.108C519.283 284.569 519.187 284.037 519.083 283.511C519.084 283.509 519.084 283.507 519.083 283.505C518.717 281.625 518.274 279.821 517.766 278.092C517.576 277.444 517.377 276.806 517.169 276.178H517.165C516.865 275.27 516.546 274.384 516.211 273.52H516.216C508.608 253.816 492.882 245.255 492.882 245.255L496.149 243.647C545.64 265.579 537.75 298.333 537.75 298.333Z" fill="black"/>
</g>
<path d="M483.025 241.493C483.025 241.493 449.015 260.007 452.026 304.734L441.892 293.509L431.891 301.984C431.891 301.984 422.898 264.655 479.302 239.661L483.025 241.493Z" fill="#FFC639"/>
<path opacity="0.36" d="M456.438 273.707C456.057 274.693 455.695 275.702 455.35 276.736L437.647 273.436C438.214 272.43 438.833 271.414 439.502 270.387L456.438 273.707Z" fill="white"/>
<path opacity="0.36" d="M454.667 278.914C453.696 282.23 452.976 285.613 452.513 289.036L432.872 285.025C433.756 281.748 434.977 278.572 436.518 275.547L454.667 278.914Z" fill="white"/>
<path d="M493.525 241.493C493.525 241.493 527.536 260.007 524.526 304.734L534.659 293.509L544.659 301.984C544.659 301.984 553.652 264.655 497.248 239.661L493.525 241.493Z" fill="#FFC639"/>
<path opacity="0.36" d="M520.113 273.707C520.492 274.693 520.855 275.702 521.2 276.736L538.904 273.436C538.337 272.43 537.718 271.414 537.048 270.387L520.113 273.707Z" fill="white"/>
<path opacity="0.36" d="M521.883 278.914C522.855 282.23 523.575 285.613 524.038 289.036L543.682 285.025C542.798 281.748 541.577 278.572 540.036 275.547L521.883 278.914Z" fill="white"/>
<path d="M488.275 248.865C481.943 248.865 476.81 245.424 476.81 241.18C476.81 236.936 481.943 233.495 488.275 233.495C494.607 233.495 499.74 236.936 499.74 241.18C499.74 245.424 494.607 248.865 488.275 248.865Z" fill="#FFC639"/>
<path opacity="0.13" d="M485.83 233.672C483.458 235.08 481.962 237.135 481.962 239.426C481.962 243.67 487.095 247.11 493.428 247.11C494.247 247.111 495.064 247.051 495.874 246.934C493.85 248.134 491.187 248.865 488.275 248.865C481.943 248.865 476.809 245.424 476.809 241.18C476.81 237.499 480.673 234.424 485.83 233.672Z" fill="black"/>
<path opacity="0.2" d="M394.88 439.543C391.973 438.001 390.457 436.925 390.457 436.925L397.716 422.357L404.666 408.412C406.16 408.31 407.65 408.236 409.133 408.189C410.699 408.142 412.257 408.121 413.808 408.128H413.91C414.429 408.132 414.948 408.138 415.466 408.145H415.472C416.542 408.165 417.609 408.197 418.673 408.241C418.683 408.242 418.694 408.242 418.704 408.241C421.007 408.339 423.287 408.493 425.546 408.703C434.448 409.528 442.959 411.175 450.877 413.279C441.183 403.262 436.988 393.015 435.21 386.368C434.142 382.374 433.941 379.895 433.941 379.895L462.787 360.177C464.16 361.082 465.5 362.049 466.808 363.078C477.55 371.495 486.208 383.756 492.856 395.878C494.727 399.288 496.435 402.687 497.992 405.986C501.332 413.11 504.289 420.407 506.85 427.845C509.711 419.529 514.737 406.608 522.011 393.787C528.496 382.36 536.768 371.015 546.892 363.08C548.2 362.055 549.54 361.088 550.913 360.18L579.758 379.899C579.758 379.899 579.56 382.378 578.49 386.372C576.71 393.019 572.517 403.269 562.821 413.283C572.253 410.774 582.529 408.918 593.301 408.326V449.51H383.251V439.543H394.88ZM390.481 436.915L391.811 436.304C391.039 436.645 390.585 436.864 390.481 436.915ZM584.946 430.178C586.678 429.383 588.378 428.503 590.045 427.538C576.254 425.51 559.109 425.09 540.445 429.406C535.997 431.647 531.043 433.719 525.532 435.558C536.54 437.375 563.115 440.2 584.944 430.178H584.946ZM517.846 431.894C519.106 431.168 520.498 430.392 522.013 429.575C525.644 427.615 529.991 425.426 534.938 423.214C543.15 415.499 551.672 404.738 554.832 391.466C553.916 392.018 552.988 392.594 552.048 393.193C542.241 399.436 531.341 408.209 522.008 420.166C519.519 423.352 517.215 426.677 515.109 430.127C516.09 430.6 517.009 431.193 517.844 431.892L517.846 431.894ZM495.901 431.856C495.932 431.83 495.962 431.804 495.995 431.779C496.078 431.709 496.168 431.639 496.256 431.571C496.302 431.535 496.349 431.497 496.396 431.462C496.486 431.396 496.577 431.33 496.669 431.264C496.718 431.23 496.769 431.194 496.818 431.16C496.913 431.094 497.009 431.028 497.107 430.967C497.155 430.937 497.203 430.905 497.253 430.873C497.355 430.807 497.459 430.746 497.565 430.682L497.693 430.608C497.791 430.548 497.892 430.493 497.995 430.437C498.01 430.427 498.025 430.418 498.041 430.411L498.103 430.379C498.262 430.291 498.425 430.208 498.591 430.129C498.392 429.806 498.193 429.483 497.994 429.164C487.56 412.49 473.77 400.914 461.657 393.191C460.718 392.593 459.791 392.018 458.873 391.464C462.033 404.736 470.555 415.497 478.767 423.212C484.608 425.818 490.312 428.715 495.86 431.892C495.87 431.879 495.884 431.867 495.898 431.853L495.901 431.856ZM425.548 428.593C426.605 429.155 427.675 429.684 428.759 430.181C450.588 440.203 477.161 437.375 488.171 435.563C482.662 433.724 477.709 431.653 473.258 429.412C455.439 425.29 439.001 425.487 425.548 427.28C424.912 427.364 424.283 427.452 423.66 427.544C424.283 427.904 424.911 428.253 425.546 428.591L425.548 428.593Z" fill="black"/>
<path opacity="0.2" d="M130.493 601.679C127.152 600.906 123.863 600.28 120.625 599.799C109.995 598.195 100.003 598.041 91.027 598.695V581.983C96.7848 582.857 102.49 584.049 108.115 585.553C98.4205 575.534 94.2257 565.289 92.4474 558.642C91.3796 554.647 91.1795 552.169 91.1795 552.169L120.021 532.447C120.221 532.579 120.421 532.713 120.621 532.847C121.784 533.634 122.924 534.467 124.042 535.346C129.719 539.794 134.812 545.312 139.337 551.319C151.934 568.047 160.103 588.546 164.084 600.11C166.072 594.339 169.099 586.344 173.201 577.705C180.271 562.81 190.527 545.996 204.126 535.342C204.59 534.98 205.054 534.623 205.528 534.274C206.388 533.639 207.261 533.028 208.146 532.444L224.246 543.454L236.995 552.166C236.995 552.166 236.796 554.644 235.727 558.639C234.226 564.237 231.015 572.391 224.246 580.809C222.978 582.384 221.586 583.97 220.057 585.55C221.436 585.184 222.832 584.832 224.246 584.494C230.475 582.999 236.792 581.898 243.16 581.197C244.333 581.069 245.512 580.956 246.697 580.858C246.811 580.848 246.925 580.838 247.039 580.83C247.189 580.816 247.339 580.804 247.489 580.794C249.058 580.673 250.637 580.578 252.226 580.509C252.238 580.508 252.251 580.508 252.264 580.509C252.302 580.509 252.34 580.505 252.378 580.505H252.382C253.152 580.474 253.926 580.448 254.702 580.43C254.956 580.424 255.21 580.418 255.464 580.413H255.47C255.987 580.403 256.506 580.397 257.026 580.396H257.128C258.192 580.389 259.262 580.398 260.337 580.42C262.303 580.46 264.281 580.548 266.27 580.684L268.161 584.476L271.453 591.08L278.032 604.286L278.695 605.618L279.915 608.068L280.092 608.42L280.1 608.436L280.477 609.193C280.477 609.193 280.102 609.46 279.363 609.919L279.227 610.002C278.489 610.459 277.427 611.084 276.055 611.812H304.376V643.86H292.45V727.363H234.954V625.022H227.605V624.673H91.0257V604.509C100.846 608.08 111.28 609.388 120.624 609.6C127.747 609.761 134.236 609.285 139.34 608.683C141.676 608.408 143.722 608.107 145.404 607.831C143.302 607.129 141.28 606.395 139.34 605.627C136.191 604.386 133.242 603.07 130.493 601.679ZM279.857 608.908L280.454 609.183C280.387 609.15 280.188 609.051 279.857 608.902C279.662 608.811 279.417 608.704 279.128 608.572L279.857 608.908ZM205.531 609.629C211.42 609.592 217.809 609.138 224.246 607.958C225.365 607.753 226.484 607.526 227.605 607.277C231.51 606.404 235.404 605.245 239.187 603.73C240.193 603.328 241.191 602.901 242.18 602.448C243.354 601.91 244.512 601.334 245.653 600.719C246.199 600.424 246.741 600.12 247.279 599.808C246.315 599.667 245.334 599.534 244.336 599.408C241.034 598.993 237.559 598.676 233.93 598.498C231.868 598.396 229.759 598.341 227.603 598.334C226.494 598.33 225.375 598.341 224.244 598.366C217.972 598.501 211.718 599.087 205.531 600.119C202.948 600.55 200.33 601.07 197.679 601.679C193.23 603.918 188.277 605.992 182.766 607.831C187.773 608.655 195.998 609.69 205.531 609.629ZM173.204 602.852C173.868 603.23 174.496 603.667 175.081 604.159C180.629 600.984 186.334 598.087 192.174 595.481C196.88 591.059 201.69 585.636 205.531 579.31C208.393 574.603 210.72 569.393 212.068 563.733C211.152 564.287 210.224 564.863 209.284 565.462C208.05 566.249 206.8 567.076 205.533 567.944C194.497 575.524 182.539 586.26 173.207 601.023C172.919 601.477 172.633 601.937 172.35 602.399C172.642 602.54 172.928 602.694 173.204 602.852ZM153.095 604.159C153.109 604.147 153.125 604.135 153.139 604.123C153.169 604.097 153.199 604.07 153.231 604.043C153.315 603.974 153.405 603.906 153.496 603.838C153.542 603.802 153.588 603.765 153.636 603.729C153.726 603.663 153.816 603.597 153.907 603.531C153.958 603.494 154.007 603.461 154.058 603.425C154.152 603.359 154.247 603.298 154.346 603.233C154.394 603.202 154.442 603.171 154.492 603.14C154.594 603.074 154.698 603.008 154.804 602.948C154.846 602.923 154.89 602.899 154.932 602.873C155.048 602.807 155.162 602.741 155.28 602.675C155.3 602.663 155.322 602.653 155.342 602.641C155.502 602.556 155.664 602.472 155.83 602.392C150.937 594.376 145.26 587.517 139.345 581.682C133.164 575.581 126.718 570.593 120.629 566.578C120.049 566.195 119.471 565.821 118.896 565.456C117.959 564.856 117.031 564.279 116.113 563.727C117.129 567.99 118.698 571.996 120.632 575.723C124.716 583.6 130.434 590.24 136.009 595.477C137.155 595.989 138.269 596.499 139.35 597.009C144.873 599.611 149.522 602.109 153.095 604.159Z" fill="black"/>
<path d="M384.042 446.892C384.042 446.892 423.948 475.225 486.908 449.502V444.545C486.908 444.545 450.635 453.141 422.337 440.15C418.731 438.495 415.254 436.489 411.997 434.07L384.042 446.892Z" fill="#E08E0F"/>
<path opacity="0.35" d="M384.041 446.892C402.626 441.45 422.34 440.146 422.34 440.146C418.734 438.492 415.257 436.485 412 434.067L384.041 446.892Z" fill="black"/>
<path d="M616.826 446.892C616.826 446.892 576.92 475.225 513.956 449.502V444.545C513.956 444.545 550.23 453.141 578.528 440.15C582.134 438.495 585.611 436.489 588.867 434.07L616.826 446.892Z" fill="#E08E0F"/>
<path opacity="0.35" d="M616.826 446.892C598.241 441.45 578.528 440.146 578.528 440.146C582.134 438.492 585.611 436.485 588.867 434.067L616.826 446.892Z" fill="black"/>
<path d="M427.526 389.867C427.526 389.867 427.724 392.346 428.794 396.34C432.169 408.947 444.222 434.516 486.079 446.892H490.815C490.815 446.892 459.246 429.961 452.452 401.429C451.825 398.816 451.426 396.153 451.259 393.471C451.235 393.128 451.218 392.786 451.205 392.442L450.692 392.386L427.526 389.867Z" fill="#E08E0F"/>
<path opacity="0.35" d="M427.525 389.867C427.525 389.867 427.724 392.346 428.794 396.34C439.541 395.883 452.26 401.346 452.449 401.427C451.822 398.814 451.423 396.151 451.256 393.469L450.69 392.384L427.525 389.867Z" fill="black"/>
<path d="M503.3 446.892C503.3 446.892 488.231 391.154 456.374 370.145L427.527 389.867C427.527 389.867 473.592 403.16 495.981 446.892H503.3Z" fill="#FFC639"/>
<path opacity="0.36" d="M460.391 373.045C463.521 375.497 466.473 378.276 469.249 381.283L447.537 398.605C443.318 396.294 438.972 394.223 434.518 392.401L460.391 373.045Z" fill="white"/>
<path opacity="0.36" d="M451.932 401.117L471.741 384.092C472.372 384.833 472.993 385.584 473.604 386.347L455.237 403.159C454.12 402.447 453.018 401.767 451.932 401.117Z" fill="white"/>
<path d="M497.566 446.892C497.566 446.892 451.634 414.736 398.248 418.378L384.041 446.892C384.041 446.892 433.552 422.453 489.523 446.892H497.566Z" fill="#FFC639"/>
<path opacity="0.36" d="M419.044 418.666C420.488 418.798 421.922 418.952 423.346 419.128L416.304 437.649C414.458 437.933 412.676 438.242 410.957 438.577L419.044 418.666Z" fill="white"/>
<path opacity="0.36" d="M404.181 418.119C408.535 418.031 412.828 418.169 417.039 418.495L408.208 439.139C401.333 440.615 395.668 442.373 391.559 443.839L404.181 418.119Z" fill="white"/>
<path d="M573.342 389.867C573.342 389.867 573.143 392.346 572.074 396.34C568.699 408.947 556.646 434.516 514.789 446.892H510.052C510.052 446.892 541.622 429.961 548.416 401.429C549.043 398.816 549.442 396.153 549.609 393.471C549.633 393.128 549.65 392.786 549.663 392.442L550.175 392.386L573.342 389.867Z" fill="#E08E0F"/>
<path opacity="0.35" d="M573.342 389.867C573.342 389.867 573.143 392.346 572.074 396.34C561.325 395.883 548.607 401.346 548.418 401.427C549.045 398.814 549.444 396.151 549.611 393.469L550.177 392.384L573.342 389.867Z" fill="black"/>
<path d="M497.566 446.892C497.566 446.892 512.636 391.154 544.493 370.145L573.339 389.867C573.339 389.867 527.274 403.16 504.886 446.892H497.566Z" fill="#FFC639"/>
<path opacity="0.36" d="M540.476 373.045C537.345 375.497 534.393 378.276 531.615 381.283L553.329 398.605C557.548 396.294 561.895 394.223 566.35 392.401L540.476 373.045Z" fill="white"/>
<path opacity="0.36" d="M548.935 401.117L529.126 384.092C528.495 384.833 527.874 385.584 527.263 386.347L545.63 403.159C546.746 402.447 547.848 401.767 548.935 401.117Z" fill="white"/>
<path d="M503.3 446.892C503.3 446.892 549.232 414.736 602.618 418.378L616.826 446.892C616.826 446.892 567.315 422.453 511.343 446.892H503.3Z" fill="#FFC639"/>
<path opacity="0.36" d="M581.823 418.666C580.378 418.798 578.944 418.952 577.521 419.128L584.562 437.649C586.409 437.933 588.191 438.242 589.909 438.577L581.823 418.666Z" fill="white"/>
<path opacity="0.36" d="M596.686 418.119C592.332 418.031 588.038 418.169 583.828 418.495L592.659 439.139C599.535 440.615 605.199 442.373 609.309 443.839L596.686 418.119Z" fill="white"/>
<path d="M360.142 449.51H640.724V515.305H360.142V449.51Z" fill="#F4613F"/>
<path d="M372.068 515.303H628.797V740.256H372.068V515.303Z" fill="#F4613F"/>
<path opacity="0.2" d="M360.143 449.51V515.304H372.068V740.257H423.763V449.51H360.143Z" fill="black"/>
<g opacity="0.3">
<path opacity="0.3" d="M575.81 459.342C570.033 459.342 565.263 455.061 564.519 449.508H587.102C586.357 455.061 581.587 459.342 575.81 459.342Z" fill="#FCB9AE"/>
<path opacity="0.3" d="M534.376 459.342C528.599 459.342 523.83 455.061 523.085 449.508H545.67C545.302 452.231 543.955 454.729 541.878 456.537C539.801 458.346 537.135 459.342 534.376 459.342V459.342Z" fill="#FCB9AE"/>
<path opacity="0.3" d="M492.941 459.342C487.164 459.342 482.394 455.061 481.65 449.508H504.232C503.487 455.061 498.718 459.342 492.941 459.342Z" fill="#FCB9AE"/>
<path opacity="0.3" d="M451.507 459.342C445.73 459.342 440.959 455.061 440.215 449.508H462.798C462.054 455.061 457.283 459.342 451.507 459.342Z" fill="#FCB9AE"/>
<path opacity="0.3" d="M410.071 459.342C404.294 459.342 399.525 455.061 398.78 449.508H421.363C420.618 455.061 415.849 459.342 410.071 459.342Z" fill="#FCB9AE"/>
<path opacity="0.3" d="M368.637 459.342C367.033 459.344 365.446 459.007 363.982 458.355C362.518 457.702 361.209 456.748 360.142 455.556V449.51H379.93C379.185 455.061 374.415 459.342 368.637 459.342Z" fill="#FCB9AE"/>
<path opacity="0.3" d="M596.528 482.04C590.235 482.04 585.133 476.959 585.133 470.692C585.133 464.424 590.235 459.343 596.528 459.343C602.822 459.343 607.924 464.424 607.924 470.692C607.924 476.959 602.822 482.04 596.528 482.04Z" fill="#FCB9AE"/>
<path opacity="0.3" d="M555.093 482.04C548.799 482.04 543.698 476.959 543.698 470.692C543.698 464.424 548.799 459.343 555.093 459.343C561.386 459.343 566.488 464.424 566.488 470.692C566.488 476.959 561.386 482.04 555.093 482.04Z" fill="#FCB9AE"/>
<path opacity="0.3" d="M513.659 482.04C507.366 482.04 502.264 476.959 502.264 470.692C502.264 464.424 507.366 459.343 513.659 459.343C519.953 459.343 525.055 464.424 525.055 470.692C525.055 476.959 519.953 482.04 513.659 482.04Z" fill="#FCB9AE"/>
<path opacity="0.3" d="M464.166 478.715C459.716 474.284 459.716 467.098 464.166 462.666C468.617 458.235 475.832 458.235 480.282 462.666C484.732 467.098 484.732 474.284 480.282 478.715C475.832 483.147 468.617 483.147 464.166 478.715Z" fill="#FCB9AE"/>
<path opacity="0.3" d="M422.732 478.717C418.281 474.285 418.281 467.099 422.732 462.668C427.182 458.236 434.397 458.236 438.847 462.668C443.298 467.099 443.298 474.285 438.847 478.717C434.397 483.148 427.182 483.148 422.732 478.717Z" fill="#FCB9AE"/>
<path opacity="0.3" d="M381.296 478.716C376.846 474.284 376.846 467.099 381.296 462.667C385.746 458.235 392.962 458.235 397.412 462.667C401.862 467.099 401.862 474.284 397.412 478.716C392.962 483.148 385.746 483.148 381.296 478.716Z" fill="#FCB9AE"/>
<path opacity="0.3" d="M567.753 501.413C563.303 496.981 563.303 489.796 567.753 485.364C572.203 480.932 579.419 480.932 583.869 485.364C588.319 489.796 588.319 496.981 583.869 501.413C579.419 505.845 572.203 505.845 567.753 501.413Z" fill="#FCB9AE"/>
<path opacity="0.3" d="M526.318 501.413C521.867 496.981 521.867 489.796 526.318 485.364C530.768 480.932 537.983 480.932 542.433 485.364C546.884 489.796 546.884 496.981 542.433 501.413C537.983 505.844 530.768 505.844 526.318 501.413Z" fill="#FCB9AE"/>
<path opacity="0.3" d="M492.941 504.737C486.648 504.737 481.546 499.656 481.546 493.389C481.546 487.121 486.648 482.041 492.941 482.041C499.235 482.041 504.337 487.121 504.337 493.389C504.337 499.656 499.235 504.737 492.941 504.737Z" fill="#FCB9AE"/>
<path opacity="0.3" d="M451.507 504.737C445.213 504.737 440.111 499.656 440.111 493.389C440.111 487.121 445.213 482.041 451.507 482.041C457.8 482.041 462.902 487.121 462.902 493.389C462.902 499.656 457.8 504.737 451.507 504.737Z" fill="#FCB9AE"/>
<path opacity="0.3" d="M410.072 504.737C403.779 504.737 398.677 499.656 398.677 493.389C398.677 487.121 403.779 482.041 410.072 482.041C416.366 482.041 421.468 487.121 421.468 493.389C421.468 499.656 416.366 504.737 410.072 504.737Z" fill="#FCB9AE"/>
<path opacity="0.3" d="M368.636 482.041C370.537 482.04 372.409 482.513 374.079 483.417C375.75 484.321 377.167 485.627 378.201 487.216C379.236 488.804 379.854 490.626 380.001 492.513C380.148 494.401 379.818 496.295 379.042 498.024C378.265 499.752 377.067 501.26 375.556 502.409C374.045 503.558 372.269 504.312 370.39 504.603C368.511 504.894 366.589 504.713 364.799 504.075C363.009 503.437 361.408 502.363 360.141 500.951V485.827C361.208 484.635 362.517 483.681 363.981 483.028C365.446 482.375 367.032 482.039 368.636 482.041V482.041Z" fill="#FCB9AE"/>
<path opacity="0.3" d="M596.528 527.434C590.235 527.434 585.133 522.353 585.133 516.086C585.133 509.818 590.235 504.738 596.528 504.738C602.822 504.738 607.924 509.818 607.924 516.086C607.924 522.353 602.822 527.434 596.528 527.434Z" fill="#FCB9AE"/>
<path opacity="0.3" d="M555.093 527.434C548.799 527.434 543.698 522.353 543.698 516.086C543.698 509.818 548.799 504.738 555.093 504.738C561.386 504.738 566.488 509.818 566.488 516.086C566.488 522.353 561.386 527.434 555.093 527.434Z" fill="#FCB9AE"/>
<path opacity="0.3" d="M513.659 527.434C507.366 527.434 502.264 522.353 502.264 516.086C502.264 509.818 507.366 504.738 513.659 504.738C519.953 504.738 525.055 509.818 525.055 516.086C525.055 522.353 519.953 527.434 513.659 527.434Z" fill="#FCB9AE"/>
<path opacity="0.3" d="M464.166 524.11C459.716 519.678 459.716 512.493 464.166 508.061C468.617 503.629 475.832 503.629 480.282 508.061C484.732 512.493 484.732 519.678 480.282 524.11C475.832 528.542 468.617 528.542 464.166 524.11Z" fill="#FCB9AE"/>
<path opacity="0.3" d="M422.732 524.111C418.282 519.679 418.282 512.494 422.732 508.062C427.182 503.63 434.397 503.63 438.847 508.062C443.298 512.494 443.298 519.679 438.847 524.111C434.397 528.542 427.182 528.542 422.732 524.111Z" fill="#FCB9AE"/>
<path opacity="0.3" d="M381.297 524.11C376.847 519.678 376.847 512.493 381.297 508.061C385.748 503.629 392.963 503.629 397.413 508.061C401.863 512.493 401.863 519.678 397.413 524.11C392.963 528.542 385.748 528.542 381.297 524.11Z" fill="#FCB9AE"/>
<path opacity="0.3" d="M567.753 546.807C563.303 542.375 563.303 535.19 567.753 530.758C572.204 526.326 579.419 526.326 583.869 530.758C588.319 535.19 588.319 542.375 583.869 546.807C579.419 551.239 572.204 551.239 567.753 546.807Z" fill="#FCB9AE"/>
<path opacity="0.3" d="M526.318 546.807C521.867 542.375 521.867 535.19 526.318 530.758C530.768 526.326 537.983 526.326 542.433 530.758C546.884 535.19 546.884 542.375 542.433 546.807C537.983 551.239 530.768 551.239 526.318 546.807Z" fill="#FCB9AE"/>
<path opacity="0.3" d="M492.941 550.131C486.648 550.131 481.546 545.05 481.546 538.783C481.546 532.515 486.648 527.434 492.941 527.434C499.235 527.434 504.337 532.515 504.337 538.783C504.337 545.05 499.235 550.131 492.941 550.131Z" fill="#FCB9AE"/>
<path opacity="0.3" d="M451.507 550.131C445.213 550.131 440.111 545.05 440.111 538.783C440.111 532.515 445.213 527.434 451.507 527.434C457.8 527.434 462.902 532.515 462.902 538.783C462.902 545.05 457.8 550.131 451.507 550.131Z" fill="#FCB9AE"/>
<path opacity="0.3" d="M410.072 550.131C403.779 550.131 398.677 545.05 398.677 538.783C398.677 532.515 403.779 527.434 410.072 527.434C416.366 527.434 421.468 532.515 421.468 538.783C421.468 545.05 416.366 550.131 410.072 550.131Z" fill="#FCB9AE"/>
<path opacity="0.3" d="M380.033 538.783C380.033 541.196 379.261 543.546 377.829 545.493C376.397 547.439 374.379 548.881 372.068 549.608V527.958C374.379 528.685 376.397 530.127 377.829 532.073C379.261 534.02 380.033 536.37 380.033 538.783V538.783Z" fill="#FCB9AE"/>
<path opacity="0.3" d="M596.528 572.828C590.235 572.828 585.133 567.748 585.133 561.48C585.133 555.213 590.235 550.132 596.528 550.132C602.822 550.132 607.924 555.213 607.924 561.48C607.924 567.748 602.822 572.828 596.528 572.828Z" fill="#FCB9AE"/>
<path opacity="0.3" d="M555.093 572.828C548.799 572.828 543.698 567.748 543.698 561.48C543.698 555.213 548.799 550.132 555.093 550.132C561.386 550.132 566.488 555.213 566.488 561.48C566.488 567.748 561.386 572.828 555.093 572.828Z" fill="#FCB9AE"/>
<path opacity="0.3" d="M513.659 572.828C507.366 572.828 502.264 567.748 502.264 561.48C502.264 555.213 507.366 550.132 513.659 550.132C519.953 550.132 525.055 555.213 525.055 561.48C525.055 567.748 519.953 572.828 513.659 572.828Z" fill="#FCB9AE"/>
<path opacity="0.3" d="M464.166 569.505C459.716 565.073 459.716 557.888 464.166 553.456C468.617 549.024 475.832 549.024 480.282 553.456C484.732 557.888 484.732 565.073 480.282 569.505C475.832 573.937 468.617 573.936 464.166 569.505Z" fill="#FCB9AE"/>
<path opacity="0.3" d="M422.732 569.504C418.282 565.072 418.282 557.887 422.732 553.455C427.182 549.023 434.397 549.023 438.847 553.455C443.298 557.887 443.298 565.072 438.847 569.504C434.397 573.936 427.182 573.936 422.732 569.504Z" fill="#FCB9AE"/>
<path opacity="0.3" d="M381.297 569.505C376.847 565.073 376.847 557.887 381.297 553.455C385.747 549.024 392.963 549.024 397.413 553.455C401.863 557.887 401.863 565.073 397.413 569.505C392.963 573.936 385.747 573.936 381.297 569.505Z" fill="#FCB9AE"/>
<path opacity="0.3" d="M567.753 592.202C563.303 587.77 563.303 580.584 567.753 576.152C572.203 571.721 579.419 571.721 583.869 576.152C588.319 580.584 588.319 587.77 583.869 592.202C579.419 596.633 572.203 596.633 567.753 592.202Z" fill="#FCB9AE"/>
<path opacity="0.3" d="M526.318 592.202C521.868 587.77 521.868 580.585 526.318 576.153C530.768 571.722 537.983 571.722 542.433 576.153C546.884 580.585 546.884 587.77 542.433 592.202C537.983 596.634 530.768 596.634 526.318 592.202Z" fill="#FCB9AE"/>
<path opacity="0.3" d="M492.941 595.526C486.648 595.526 481.546 590.445 481.546 584.177C481.546 577.91 486.648 572.829 492.941 572.829C499.235 572.829 504.337 577.91 504.337 584.177C504.337 590.445 499.235 595.526 492.941 595.526Z" fill="#FCB9AE"/>
<path opacity="0.3" d="M451.507 595.526C445.213 595.526 440.111 590.445 440.111 584.177C440.111 577.91 445.213 572.829 451.507 572.829C457.8 572.829 462.902 577.91 462.902 584.177C462.902 590.445 457.8 595.526 451.507 595.526Z" fill="#FCB9AE"/>
<path opacity="0.3" d="M410.072 595.526C403.779 595.526 398.677 590.445 398.677 584.177C398.677 577.91 403.779 572.829 410.072 572.829C416.366 572.829 421.468 577.91 421.468 584.177C421.468 590.445 416.366 595.526 410.072 595.526Z" fill="#FCB9AE"/>
<path opacity="0.3" d="M380.033 584.177C380.033 586.59 379.261 588.941 377.829 590.887C376.397 592.834 374.379 594.275 372.068 595.002V573.353C374.379 574.08 376.397 575.521 377.829 577.468C379.261 579.414 380.033 581.764 380.033 584.177V584.177Z" fill="#FCB9AE"/>
<path opacity="0.3" d="M596.528 618.223C590.235 618.223 585.133 613.142 585.133 606.875C585.133 600.607 590.235 595.526 596.528 595.526C602.822 595.526 607.924 600.607 607.924 606.875C607.924 613.142 602.822 618.223 596.528 618.223Z" fill="#FCB9AE"/>
<path opacity="0.3" d="M555.093 618.223C548.799 618.223 543.698 613.142 543.698 606.875C543.698 600.607 548.799 595.526 555.093 595.526C561.386 595.526 566.488 600.607 566.488 606.875C566.488 613.142 561.386 618.223 555.093 618.223Z" fill="#FCB9AE"/>
<path opacity="0.3" d="M513.659 618.223C507.366 618.223 502.264 613.142 502.264 606.875C502.264 600.607 507.366 595.526 513.659 595.526C519.953 595.526 525.055 600.607 525.055 606.875C525.055 613.142 519.953 618.223 513.659 618.223Z" fill="#FCB9AE"/>
<path opacity="0.3" d="M464.165 614.899C459.715 610.467 459.715 603.282 464.165 598.85C468.615 594.419 475.831 594.419 480.281 598.85C484.731 603.282 484.731 610.467 480.281 614.899C475.831 619.331 468.615 619.331 464.165 614.899Z" fill="#FCB9AE"/>
<path opacity="0.3" d="M422.732 614.899C418.282 610.467 418.282 603.282 422.732 598.85C427.182 594.418 434.397 594.418 438.847 598.85C443.298 603.282 443.298 610.467 438.847 614.899C434.397 619.331 427.182 619.331 422.732 614.899Z" fill="#FCB9AE"/>
<path opacity="0.3" d="M381.296 614.899C376.846 610.467 376.846 603.282 381.296 598.85C385.746 594.418 392.962 594.418 397.412 598.85C401.862 603.282 401.862 610.467 397.412 614.899C392.962 619.331 385.746 619.331 381.296 614.899Z" fill="#FCB9AE"/>
<path opacity="0.3" d="M567.753 637.595C563.303 633.164 563.303 625.978 567.753 621.547C572.203 617.115 579.419 617.115 583.869 621.547C588.319 625.978 588.319 633.164 583.869 637.595C579.419 642.027 572.203 642.027 567.753 637.595Z" fill="#FCB9AE"/>
<path opacity="0.3" d="M526.318 637.597C521.868 633.165 521.868 625.98 526.318 621.548C530.769 617.116 537.984 617.116 542.434 621.548C546.885 625.98 546.885 633.165 542.434 637.597C537.984 642.028 530.769 642.028 526.318 637.597Z" fill="#FCB9AE"/>
<path opacity="0.3" d="M492.941 640.92C486.648 640.92 481.546 635.839 481.546 629.571C481.546 623.304 486.648 618.223 492.941 618.223C499.235 618.223 504.337 623.304 504.337 629.571C504.337 635.839 499.235 640.92 492.941 640.92Z" fill="#FCB9AE"/>
<path opacity="0.3" d="M451.507 640.92C445.213 640.92 440.111 635.839 440.111 629.571C440.111 623.304 445.213 618.223 451.507 618.223C457.8 618.223 462.902 623.304 462.902 629.571C462.902 635.839 457.8 640.92 451.507 640.92Z" fill="#FCB9AE"/>
<path opacity="0.3" d="M410.072 640.92C403.779 640.92 398.677 635.839 398.677 629.571C398.677 623.304 403.779 618.223 410.072 618.223C416.366 618.223 421.468 623.304 421.468 629.571C421.468 635.839 416.366 640.92 410.072 640.92Z" fill="#FCB9AE"/>
<path opacity="0.3" d="M380.033 629.572C380.033 631.985 379.261 634.335 377.829 636.282C376.397 638.228 374.379 639.67 372.068 640.397V618.747C374.379 619.474 376.397 620.916 377.829 622.862C379.261 624.809 380.033 627.159 380.033 629.572V629.572Z" fill="#FCB9AE"/>
<path opacity="0.3" d="M596.528 663.617C590.235 663.617 585.133 658.536 585.133 652.269C585.133 646.001 590.235 640.92 596.528 640.92C602.822 640.92 607.924 646.001 607.924 652.269C607.924 658.536 602.822 663.617 596.528 663.617Z" fill="#FCB9AE"/>
<path opacity="0.3" d="M555.093 663.617C548.799 663.617 543.698 658.536 543.698 652.269C543.698 646.001 548.799 640.92 555.093 640.92C561.386 640.92 566.488 646.001 566.488 652.269C566.488 658.536 561.386 663.617 555.093 663.617Z" fill="#FCB9AE"/>
<path opacity="0.3" d="M513.659 663.617C507.366 663.617 502.264 658.536 502.264 652.269C502.264 646.001 507.366 640.92 513.659 640.92C519.953 640.92 525.055 646.001 525.055 652.269C525.055 658.536 519.953 663.617 513.659 663.617Z" fill="#FCB9AE"/>
<path opacity="0.3" d="M464.166 660.293C459.716 655.862 459.716 648.676 464.166 644.245C468.617 639.813 475.832 639.813 480.282 644.245C484.732 648.676 484.732 655.862 480.282 660.293C475.832 664.725 468.617 664.725 464.166 660.293Z" fill="#FCB9AE"/>
<path opacity="0.3" d="M422.732 660.294C418.282 655.862 418.282 648.676 422.732 644.244C427.182 639.813 434.397 639.813 438.847 644.244C443.298 648.676 443.298 655.862 438.847 660.294C434.397 664.725 427.182 664.725 422.732 660.294Z" fill="#FCB9AE"/>
<path opacity="0.3" d="M381.297 660.293C376.847 655.862 376.847 648.676 381.297 644.245C385.747 639.813 392.963 639.813 397.413 644.245C401.863 648.676 401.863 655.862 397.413 660.293C392.963 664.725 385.747 664.725 381.297 660.293Z" fill="#FCB9AE"/>
<path opacity="0.3" d="M567.753 682.991C563.303 678.559 563.303 671.374 567.753 666.942C572.203 662.51 579.419 662.51 583.869 666.942C588.319 671.374 588.319 678.559 583.869 682.991C579.419 687.423 572.203 687.423 567.753 682.991Z" fill="#FCB9AE"/>
<path opacity="0.3" d="M526.318 682.99C521.867 678.558 521.867 671.372 526.318 666.941C530.768 662.509 537.983 662.509 542.433 666.941C546.884 671.372 546.884 678.558 542.433 682.99C537.983 687.421 530.768 687.421 526.318 682.99Z" fill="#FCB9AE"/>
<path opacity="0.3" d="M492.941 686.314C486.648 686.314 481.546 681.233 481.546 674.966C481.546 668.698 486.648 663.618 492.941 663.618C499.235 663.618 504.337 668.698 504.337 674.966C504.337 681.233 499.235 686.314 492.941 686.314Z" fill="#FCB9AE"/>
<path opacity="0.3" d="M451.507 686.314C445.213 686.314 440.111 681.233 440.111 674.966C440.111 668.698 445.213 663.618 451.507 663.618C457.8 663.618 462.902 668.698 462.902 674.966C462.902 681.233 457.8 686.314 451.507 686.314Z" fill="#FCB9AE"/>
<path opacity="0.3" d="M410.072 686.314C403.779 686.314 398.677 681.233 398.677 674.966C398.677 668.698 403.779 663.618 410.072 663.618C416.366 663.618 421.468 668.698 421.468 674.966C421.468 681.233 416.366 686.314 410.072 686.314Z" fill="#FCB9AE"/>
<path opacity="0.3" d="M380.033 674.966C380.033 677.379 379.261 679.729 377.829 681.676C376.397 683.622 374.379 685.063 372.068 685.79V664.145C374.378 664.872 376.395 666.313 377.828 668.258C379.26 670.204 380.032 672.553 380.033 674.966V674.966Z" fill="#FCB9AE"/>
<path opacity="0.3" d="M596.528 709.012C590.235 709.012 585.133 703.931 585.133 697.663C585.133 691.396 590.235 686.315 596.528 686.315C602.822 686.315 607.924 691.396 607.924 697.663C607.924 703.931 602.822 709.012 596.528 709.012Z" fill="#FCB9AE"/>
<path opacity="0.3" d="M555.093 709.012C548.799 709.012 543.698 703.931 543.698 697.663C543.698 691.396 548.799 686.315 555.093 686.315C561.386 686.315 566.488 691.396 566.488 697.663C566.488 703.931 561.386 709.012 555.093 709.012Z" fill="#FCB9AE"/>
<path opacity="0.3" d="M513.659 709.012C507.366 709.012 502.264 703.931 502.264 697.663C502.264 691.396 507.366 686.315 513.659 686.315C519.953 686.315 525.055 691.396 525.055 697.663C525.055 703.931 519.953 709.012 513.659 709.012Z" fill="#FCB9AE"/>
<path opacity="0.3" d="M464.166 705.688C459.716 701.256 459.716 694.07 464.166 689.638C468.616 685.207 475.832 685.207 480.282 689.638C484.732 694.07 484.732 701.256 480.282 705.688C475.832 710.12 468.616 710.12 464.166 705.688Z" fill="#FCB9AE"/>
<path opacity="0.3" d="M422.732 705.688C418.281 701.256 418.281 694.07 422.732 689.638C427.182 685.207 434.397 685.207 438.847 689.638C443.298 694.07 443.298 701.256 438.847 705.688C434.397 710.12 427.182 710.12 422.732 705.688Z" fill="#FCB9AE"/>
<path opacity="0.3" d="M381.297 705.687C376.847 701.255 376.847 694.07 381.297 689.638C385.747 685.206 392.963 685.206 397.413 689.638C401.863 694.07 401.863 701.255 397.413 705.687C392.963 710.119 385.747 710.119 381.297 705.687Z" fill="#FCB9AE"/>
<path opacity="0.3" d="M567.753 728.385C563.303 723.953 563.303 716.767 567.753 712.336C572.204 707.904 579.419 707.904 583.869 712.336C588.319 716.767 588.319 723.953 583.869 728.385C579.419 732.817 572.204 732.816 567.753 728.385Z" fill="#FCB9AE"/>
<path opacity="0.3" d="M526.317 728.385C521.867 723.953 521.867 716.768 526.317 712.336C530.768 707.904 537.983 707.904 542.433 712.336C546.884 716.768 546.884 723.953 542.433 728.385C537.983 732.817 530.768 732.817 526.317 728.385Z" fill="#FCB9AE"/>
<path opacity="0.3" d="M492.941 731.709C486.648 731.709 481.546 726.628 481.546 720.361C481.546 714.093 486.648 709.012 492.941 709.012C499.235 709.012 504.337 714.093 504.337 720.361C504.337 726.628 499.235 731.709 492.941 731.709Z" fill="#FCB9AE"/>
<path opacity="0.3" d="M451.507 731.709C445.213 731.709 440.111 726.628 440.111 720.361C440.111 714.093 445.213 709.012 451.507 709.012C457.8 709.012 462.902 714.093 462.902 720.361C462.902 726.628 457.8 731.709 451.507 731.709Z" fill="#FCB9AE"/>
<path opacity="0.3" d="M410.072 731.709C403.779 731.709 398.677 726.628 398.677 720.361C398.677 714.093 403.779 709.012 410.072 709.012C416.366 709.012 421.468 714.093 421.468 720.361C421.468 726.628 416.366 731.709 410.072 731.709Z" fill="#FCB9AE"/>
<path opacity="0.3" d="M380.033 720.36C380.033 722.773 379.261 725.124 377.829 727.07C376.397 729.017 374.379 730.458 372.068 731.185V709.535C374.379 710.263 376.397 711.704 377.829 713.65C379.261 715.597 380.033 717.947 380.033 720.36V720.36Z" fill="#FCB9AE"/>
<path opacity="0.3" d="M596.528 731.709C599.061 731.709 601.522 732.549 603.523 734.097C605.523 735.645 606.949 737.813 607.575 740.257H585.485C586.11 737.813 587.536 735.647 589.535 734.099C591.535 732.551 593.995 731.71 596.528 731.709V731.709Z" fill="#FCB9AE"/>
<path opacity="0.3" d="M555.094 731.709C557.627 731.71 560.087 732.55 562.087 734.098C564.087 735.646 565.513 737.813 566.139 740.257H544.048C544.674 737.813 546.1 735.646 548.1 734.098C550.1 732.55 552.561 731.71 555.094 731.709V731.709Z" fill="#FCB9AE"/>
<path opacity="0.3" d="M513.657 731.709C516.19 731.71 518.651 732.55 520.651 734.098C522.651 735.646 524.076 737.813 524.702 740.257H502.614C503.24 737.813 504.665 735.647 506.664 734.099C508.664 732.551 511.124 731.71 513.657 731.709V731.709Z" fill="#FCB9AE"/>
<path opacity="0.3" d="M472.224 731.709C474.757 731.71 477.218 732.55 479.218 734.098C481.218 735.646 482.644 737.813 483.27 740.257H461.179C461.805 737.813 463.23 735.646 465.23 734.098C467.23 732.55 469.691 731.71 472.224 731.709V731.709Z" fill="#FCB9AE"/>
<path opacity="0.3" d="M430.789 731.709C433.322 731.71 435.783 732.55 437.783 734.098C439.783 735.646 441.208 737.813 441.834 740.257H419.744C420.369 737.813 421.795 735.646 423.795 734.098C425.795 732.55 428.256 731.71 430.789 731.709V731.709Z" fill="#FCB9AE"/>
<path opacity="0.3" d="M389.354 731.709C391.887 731.71 394.348 732.55 396.348 734.098C398.348 735.646 399.774 737.813 400.399 740.257H378.309C378.935 737.813 380.36 735.646 382.36 734.098C384.36 732.55 386.821 731.71 389.354 731.709V731.709Z" fill="#FCB9AE"/>
</g>
<path d="M512.307 449.51H541.664V740.257H512.307V449.51Z" fill="#FFC639"/>
<path d="M389.749 449.51H403.702V740.257H389.749V449.51Z" fill="#FFC639"/>
<path opacity="0.2" d="M372.068 515.305H628.797V531.153H372.068V515.305Z" fill="black"/>
<g opacity="0.75">
<path opacity="0.36" d="M490.81 450.694L494.802 452.659C494.802 452.659 475.581 463.122 466.282 487.206H466.289C465.881 488.262 465.492 489.345 465.122 490.454H465.118C464.864 491.22 464.621 491.999 464.389 492.79C463.768 494.902 463.225 497.11 462.778 499.407C462.778 499.41 462.778 499.413 462.778 499.415C462.653 500.058 462.535 500.708 462.425 501.366L462.388 501.592C462.358 501.774 462.328 501.956 462.3 502.139L462.26 502.399C462.198 502.805 462.138 503.213 462.082 503.625C461.376 508.806 461.149 514.417 461.557 520.48L450.687 508.441L439.963 517.531C439.963 517.531 430.32 477.499 490.81 450.694Z" fill="black"/>
<path opacity="0.36" d="M560.9 517.532L550.176 508.442L539.306 520.481C539.714 514.418 539.487 508.806 538.781 503.626C538.725 503.214 538.665 502.806 538.603 502.399L538.563 502.139C538.535 501.956 538.505 501.774 538.475 501.593C538.463 501.518 538.451 501.442 538.438 501.367C538.328 500.71 538.211 500.059 538.085 499.416C538.085 499.416 538.085 499.411 538.085 499.408C537.638 497.11 537.096 494.905 536.475 492.791C536.243 491.999 536 491.22 535.746 490.454H535.741C535.374 489.344 534.985 488.262 534.575 487.207H534.581C525.281 463.123 506.061 452.66 506.061 452.66L510.054 450.695C570.544 477.499 560.9 517.532 560.9 517.532Z" fill="black"/>
</g>
<path d="M494.017 448.061C494.017 448.061 452.449 470.689 456.129 525.353L443.742 511.634L431.52 521.993C431.52 521.993 420.529 476.368 489.466 445.822L494.017 448.061Z" fill="#FFC639"/>
<path opacity="0.36" d="M461.521 487.433C461.056 488.638 460.613 489.872 460.192 491.135L438.554 487.105C439.247 485.876 440.003 484.633 440.82 483.378L461.521 487.433Z" fill="white"/>
<path opacity="0.36" d="M459.357 493.797C458.169 497.85 457.288 501.986 456.722 506.17L432.716 501.266C433.796 497.261 435.289 493.379 437.171 489.682L459.357 493.797Z" fill="white"/>
<path d="M506.85 448.061C506.85 448.061 548.418 470.689 544.738 525.353L557.125 511.634L569.347 521.993C569.347 521.993 580.338 476.368 511.401 445.822L506.85 448.061Z" fill="#FFC639"/>
<path opacity="0.36" d="M539.345 487.433C539.811 488.638 540.254 489.872 540.675 491.135L562.312 487.105C561.619 485.876 560.864 484.633 560.046 483.378L539.345 487.433Z" fill="white"/>
<path opacity="0.36" d="M541.509 493.797C542.697 497.85 543.577 501.986 544.142 506.17L568.148 501.266C567.069 497.261 565.576 493.379 563.693 489.682L541.509 493.797Z" fill="white"/>
<path d="M500.433 457.071C492.694 457.071 486.42 452.866 486.42 447.678C486.42 442.491 492.694 438.286 500.433 438.286C508.172 438.286 514.446 442.491 514.446 447.678C514.446 452.866 508.172 457.071 500.433 457.071Z" fill="#FFC639"/>
<path opacity="0.13" d="M497.444 438.502C494.545 440.223 492.717 442.735 492.717 445.534C492.717 450.722 498.991 454.927 506.73 454.927C507.73 454.927 508.729 454.855 509.719 454.71C507.246 456.178 503.995 457.071 500.433 457.071C492.693 457.071 486.42 452.866 486.42 447.679C486.42 443.179 491.141 439.421 497.444 438.502Z" fill="black"/>
<path d="M577.356 688.803H734.048V740.257H577.356V688.803Z" fill="#D33232"/>
<path opacity="0.2" d="M577.357 689.292H734.049V698.965H577.357V689.292Z" fill="black"/>
<path d="M584.663 668.133C584.663 668.133 609.019 685.426 647.449 669.725V666.698C647.449 666.698 625.312 671.944 608.038 664.016C605.811 663.002 603.696 661.758 601.729 660.305L584.663 668.133Z" fill="#2D485A"/>
<path opacity="0.35" d="M584.664 668.133C596.008 664.811 608.04 664.013 608.04 664.013C605.812 662.999 603.698 661.755 601.73 660.302L584.664 668.133Z" fill="black"/>
<path d="M653.953 668.133C653.953 668.133 625.917 648.506 593.335 650.73L584.663 668.133C584.663 668.133 614.883 653.216 649.044 668.133H653.953Z" fill="#3D6277"/>
<path d="M570.077 669.731H741.328V689.292H570.077V669.731Z" fill="#D33232"/>
<path opacity="0.2" d="M570.077 669.731H614.528V688.803V689.293V740.257H577.355V689.293H570.077V669.731Z" fill="black"/>
<path d="M21.7081 655.924H278.437V740.229H21.7081V655.924Z" fill="#7D8F05"/>
<path d="M33.6814 622.059C33.6814 622.059 73.5877 650.393 136.551 624.669V619.709C136.551 619.709 100.277 628.305 71.9798 615.314C68.3735 613.658 64.8971 611.652 61.6402 609.233L33.6814 622.059Z" fill="#DDB924"/>
<path opacity="0.35" d="M33.681 622.059C52.2665 616.617 71.9795 615.313 71.9795 615.313C68.3732 613.658 64.8968 611.652 61.6398 609.233L33.681 622.059Z" fill="black"/>
<path d="M266.466 622.059C266.466 622.059 226.559 650.393 163.595 624.669V619.709C163.595 619.709 199.87 628.305 228.167 615.314C231.774 613.658 235.25 611.652 238.507 609.233L266.466 622.059Z" fill="#DDB924"/>
<path opacity="0.35" d="M266.466 622.059C247.88 616.617 228.168 615.313 228.168 615.313C231.774 613.658 235.25 611.652 238.507 609.233L266.466 622.059Z" fill="black"/>
<path d="M77.1649 565.035C77.1649 565.035 77.3637 567.513 78.4328 571.507C81.8084 584.114 93.8614 609.683 135.718 622.059H140.454C140.454 622.059 108.885 605.127 102.091 576.597C101.464 573.983 101.065 571.321 100.898 568.639C100.874 568.297 100.857 567.953 100.844 567.61L100.332 567.555L77.1649 565.035Z" fill="#DDB924"/>
<path opacity="0.35" d="M77.165 565.035C77.165 565.035 77.3639 567.513 78.433 571.507C89.1815 571.05 101.899 576.513 102.089 576.594C101.462 573.981 101.063 571.318 100.896 568.636L100.33 567.552L77.165 565.035Z" fill="black"/>
<path d="M152.94 622.059C152.94 622.059 137.872 566.32 106.014 545.311L77.1679 565.034C77.1679 565.034 123.236 578.326 145.624 622.059H152.94Z" fill="#FFD921"/>
<path opacity="0.36" d="M110.032 548.211C113.162 550.664 116.115 553.443 118.893 556.45L97.1783 573.773C92.9589 571.462 88.6114 569.39 84.1568 567.568L110.032 548.211Z" fill="white"/>
<path opacity="0.36" d="M101.572 576.284L121.381 559.258C122.012 559.999 122.633 560.75 123.244 561.513L104.877 578.325C103.761 577.614 102.659 576.933 101.572 576.284Z" fill="white"/>
<path d="M147.206 622.059C147.206 622.059 101.274 589.902 47.8884 593.545L33.6799 622.059C33.6799 622.059 83.191 597.62 139.162 622.059H147.206Z" fill="#FFD921"/>
<path opacity="0.36" d="M68.6838 593.832C70.1282 593.964 71.5621 594.118 72.9854 594.294L65.9437 612.816C64.0985 613.099 62.3162 613.409 60.5969 613.744L68.6838 593.832Z" fill="white"/>
<path opacity="0.36" d="M53.8216 593.286C58.1755 593.198 62.469 593.335 66.6797 593.662L57.8507 614.306C50.9749 615.782 45.3114 617.541 41.2021 619.007L53.8216 593.286Z" fill="white"/>
<path d="M222.981 565.035C222.981 565.035 222.783 567.513 221.714 571.507C218.338 584.114 206.285 609.683 164.428 622.059H159.692C159.692 622.059 191.261 605.127 198.055 576.597C198.681 573.983 199.081 571.321 199.248 568.639C199.271 568.297 199.288 567.953 199.302 567.61L199.814 567.555L222.981 565.035Z" fill="#DDB924"/>
<path opacity="0.35" d="M222.981 565.035C222.981 565.035 222.783 567.513 221.714 571.507C210.965 571.05 198.246 576.513 198.058 576.594C198.684 573.98 199.083 571.318 199.251 568.636L199.817 567.552L222.981 565.035Z" fill="black"/>
<path d="M147.207 622.059C147.207 622.059 162.276 566.32 194.133 545.311L222.979 565.034C222.979 565.034 176.912 578.326 154.524 622.059H147.207Z" fill="#FFD921"/>
<path opacity="0.36" d="M190.115 548.211C186.986 550.664 184.033 553.443 181.255 556.45L202.969 573.773C207.189 571.462 211.536 569.39 215.99 567.568L190.115 548.211Z" fill="white"/>
<path opacity="0.36" d="M198.574 576.284L178.765 559.258C178.134 559.999 177.513 560.75 176.901 561.513L195.27 578.325C196.386 577.614 197.488 576.933 198.574 576.284Z" fill="white"/>
<path d="M152.941 622.059C152.941 622.059 198.872 589.902 252.258 593.545L266.466 622.059C266.466 622.059 216.955 597.62 160.984 622.059H152.941Z" fill="#FFD921"/>
<path opacity="0.36" d="M231.463 593.832C230.019 593.964 228.585 594.118 227.161 594.294L234.203 612.816C236.048 613.099 237.831 613.409 239.55 613.744L231.463 593.832Z" fill="white"/>
<path opacity="0.36" d="M246.325 593.286C241.972 593.198 237.678 593.335 233.467 593.662L242.298 614.306C249.174 615.782 254.838 617.541 258.947 619.007L246.325 593.286Z" fill="white"/>
<path d="M9.78293 624.678H290.364V656.728H9.78293V624.678Z" fill="#7D8F05"/>
<path opacity="0.32" d="M147.054 624.678V740.228H21.7084V656.728H9.78334V624.678H147.054Z" fill="black"/>
<path d="M280.63 624.678H286.825V656.728H280.63V624.678Z" fill="#A6BE2C"/>
<path d="M267.16 624.678H273.354V740.228H267.16V624.678Z" fill="#A6BE2C"/>
<path d="M253.689 624.678H259.884V740.228H253.689V624.678Z" fill="#A6BE2C"/>
<path d="M240.219 624.678H246.413V740.228H240.219V624.678Z" fill="#A6BE2C"/>
<path d="M226.747 624.678H232.941V740.228H226.747V624.678Z" fill="#A6BE2C"/>
<path d="M213.276 624.678H219.471V740.228H213.276V624.678Z" fill="#A6BE2C"/>
<path d="M199.805 624.678H206V740.228H199.805V624.678Z" fill="#A6BE2C"/>
<path d="M186.335 624.678H192.529V740.228H186.335V624.678Z" fill="#A6BE2C"/>
<path d="M172.863 624.678H179.058V740.228H172.863V624.678Z" fill="#A6BE2C"/>
<path d="M159.392 624.678H165.587V740.228H159.392V624.678Z" fill="#A6BE2C"/>
<path d="M145.922 624.678H152.116V740.228H145.922V624.678Z" fill="#A6BE2C"/>
<path d="M132.451 624.678H138.646V740.228H132.451V624.678Z" fill="#A6BE2C"/>
<path d="M118.98 624.678H125.175V740.228H118.98V624.678Z" fill="#A6BE2C"/>
<path d="M105.509 624.678H111.703V740.228H105.509V624.678Z" fill="#A6BE2C"/>
<path d="M92.038 624.678H98.2324V740.228H92.038V624.678Z" fill="#A6BE2C"/>
<path d="M78.5672 624.678H84.7617V740.228H78.5672V624.678Z" fill="#A6BE2C"/>
<path d="M65.0966 624.678H71.291V740.228H65.0966V624.678Z" fill="#A6BE2C"/>
<path d="M51.6249 624.678H57.8193V740.228H51.6249V624.678Z" fill="#A6BE2C"/>
<path d="M38.1551 624.678H44.3496V740.228H38.1551V624.678Z" fill="#A6BE2C"/>
<path d="M24.6835 624.678H30.8779V740.228H24.6835V624.678Z" fill="#A6BE2C"/>
<path d="M11.2128 624.678H17.4072V656.728H11.2128V624.678Z" fill="#A6BE2C"/>
<path d="M202.214 624.678H231.57V740.229H202.214V624.678Z" fill="#FFD921"/>
<path d="M67.0554 624.678H96.4121V740.229H67.0554V624.678Z" fill="#FFD921"/>
<path opacity="0.1" d="M21.709 656.728H278.438V672.578H21.709V656.728Z" fill="black"/>
<g opacity="0.75">
<path opacity="0.36" d="M140.451 625.862L144.443 627.827C144.443 627.827 125.222 638.291 115.923 662.374H115.93C115.522 663.43 115.133 664.512 114.763 665.621H114.759C114.505 666.387 114.262 667.166 114.03 667.958C113.409 670.07 112.867 672.277 112.419 674.575C112.419 674.577 112.419 674.58 112.419 674.583C112.293 675.226 112.176 675.876 112.066 676.534C112.054 676.609 112.041 676.684 112.029 676.76C111.999 676.941 111.97 677.123 111.942 677.306C111.928 677.393 111.915 677.48 111.901 677.567C111.839 677.973 111.78 678.381 111.724 678.793C111.017 683.973 110.79 689.586 111.199 695.648L100.329 683.61L89.6048 692.698C89.6048 692.698 79.9618 652.666 140.451 625.862Z" fill="black"/>
<path opacity="0.36" d="M210.541 692.699L199.817 683.61L188.947 695.648C189.355 689.586 189.128 683.973 188.422 678.793C188.365 678.382 188.306 677.973 188.243 677.567C188.23 677.48 188.218 677.393 188.204 677.306C188.175 677.123 188.146 676.941 188.116 676.76L188.078 676.535C187.968 675.874 187.851 675.224 187.726 674.583V674.575C187.279 672.277 186.737 670.073 186.116 667.958C185.883 667.166 185.64 666.387 185.387 665.621H185.383C185.015 664.512 184.626 663.429 184.216 662.374H184.222C174.922 638.29 155.702 627.827 155.702 627.827L159.695 625.862C220.185 652.666 210.541 692.699 210.541 692.699Z" fill="black"/>
</g>
<path d="M143.657 623.227C143.657 623.227 102.089 645.855 105.769 700.519L93.3816 686.8L81.1595 697.159C81.1595 697.159 70.1682 651.535 139.106 620.989L143.657 623.227Z" fill="#F9DE6B"/>
<path opacity="0.36" d="M111.161 662.601C110.696 663.805 110.253 665.039 109.832 666.301L88.1943 662.271C88.8885 661.043 89.6441 659.801 90.4611 658.546L111.161 662.601Z" fill="white"/>
<path opacity="0.36" d="M108.997 668.964C107.81 673.017 106.93 677.152 106.364 681.336L82.3584 676.433C83.4378 672.429 84.9309 668.547 86.8136 664.849L108.997 668.964Z" fill="white"/>
<path d="M156.489 623.228C156.489 623.228 198.057 645.855 194.377 700.519L206.764 686.8L218.986 697.158C218.986 697.158 229.979 651.538 161.039 620.988L156.489 623.228Z" fill="#F9DE6B"/>
<path opacity="0.36" d="M188.986 662.601C189.451 663.805 189.894 665.039 190.315 666.301L211.951 662.271C211.257 661.043 210.502 659.801 209.684 658.546L188.986 662.601Z" fill="white"/>
<path opacity="0.36" d="M191.148 668.964C192.336 673.016 193.216 677.152 193.782 681.336L217.788 676.433C216.708 672.429 215.215 668.547 213.332 664.849L191.148 668.964Z" fill="white"/>
<path d="M150.074 632.238C142.335 632.238 136.061 628.033 136.061 622.845C136.061 617.658 142.335 613.453 150.074 613.453C157.813 613.453 164.087 617.658 164.087 622.845C164.087 628.033 157.813 632.238 150.074 632.238Z" fill="#E8C42A"/>
<path opacity="0.13" d="M147.085 613.67C144.187 615.391 142.357 617.902 142.357 620.701C142.357 625.888 148.631 630.093 156.37 630.093C157.371 630.093 158.37 630.021 159.359 629.878C156.887 631.345 153.637 632.238 150.074 632.238C142.335 632.238 136.061 628.033 136.061 622.846C136.061 618.346 140.782 614.588 147.085 613.67Z" fill="black"/>
</g>
</mask>
<g mask="url(#mask0_53_916)">
<rect width="1790.14" height="2018.37" transform="matrix(-1 0 0 1 1251.11 -414.944)" fill="#0F3A9E"/>
</g>
<defs>
<clipPath id="clip0_53_916">
<rect width="741" height="740" fill="white" transform="matrix(-1 0 0 1 741 0)"/>
</clipPath>
</defs>
</svg>
