<svg width="21" height="18" viewBox="0 0 21 18" fill="none" xmlns="http://www.w3.org/2000/svg">
<path d="M0.36132 8.54015L5.07487 10.2994L6.89931 16.1668C7.01605 16.5425 7.47556 16.6814 7.78057 16.4321L10.408 14.2902C10.6834 14.0658 11.0757 14.0546 11.3635 14.2635L16.1024 17.7041C16.4287 17.9412 16.8909 17.7624 16.9728 17.3682L20.4443 0.669568C20.5336 0.238894 20.1104 -0.120388 19.7004 0.0382168L0.355796 7.50076C-0.121587 7.68487 -0.117427 8.36075 0.36132 8.54015ZM6.60528 9.36291L15.8173 3.6892C15.9829 3.58753 16.1532 3.81139 16.011 3.94327L8.40844 11.0103C8.14122 11.259 7.96884 11.5919 7.92001 11.9532L7.66104 13.8724C7.62674 14.1287 7.26677 14.1541 7.19606 13.9061L6.20004 10.4064C6.08596 10.0072 6.25221 9.58084 6.60528 9.36291Z" fill="#476BCB"/>
</svg>
