<svg width="20" height="21" viewBox="0 0 20 21" fill="none" xmlns="http://www.w3.org/2000/svg">
<path d="M19.4203 4.65469C19.0485 3.37804 18.313 2.3674 17.2339 1.65251C15.872 0.749491 14.3056 0.429235 12.9529 0.234981C11.081 -0.0336493 9.38546 -0.0712751 7.77087 0.118604C6.25627 0.297107 5.11623 0.582362 4.07529 1.04262C2.03613 1.94389 0.81245 3.40342 0.438801 5.3792C0.256977 6.33822 0.135155 7.20536 0.0642438 8.03225C-0.099398 9.94417 0.0487888 11.6364 0.517895 13.2045C0.974274 14.7331 1.77248 15.826 2.95798 16.5435C3.26071 16.7264 3.64618 16.8585 4.02074 16.9863C4.20802 17.0502 4.38802 17.1132 4.5453 17.1797V20.2685C4.5453 20.6727 4.88531 21 5.30533 21C5.50352 21 5.69352 20.9256 5.83535 20.7926L8.79635 18.0206C8.92545 17.8788 8.92545 17.8788 9.05818 17.8762C10.07 17.8569 11.1037 17.8193 12.131 17.7659C13.3756 17.7003 14.8175 17.5848 16.1757 17.0397C17.4185 16.54 18.3258 15.7473 18.8703 14.6841C19.4385 13.5746 19.7767 12.3723 19.9031 11.0099C20.1249 8.61414 19.9667 6.5351 19.4203 4.65469ZM14.2647 13.7724C13.9674 14.2405 13.522 14.5643 12.9983 14.7743C12.6156 14.9283 12.2247 14.8959 11.8474 14.7419C8.67999 13.4521 6.19718 11.4186 4.5553 8.49689C4.21711 7.89488 3.98165 7.23949 3.71164 6.60335C3.65618 6.4721 3.66073 6.31897 3.63618 6.17634C3.65982 5.1482 4.47894 4.56981 5.30624 4.39481C5.62261 4.32743 5.90262 4.43506 6.13717 4.65119C6.78629 5.24795 7.29994 5.93921 7.68632 6.71448C7.85541 7.05486 7.77905 7.35587 7.49086 7.60875C7.43176 7.66125 7.36903 7.71025 7.30449 7.75662C6.64719 8.23263 6.55082 8.59226 6.90084 9.3089C7.49722 10.5278 8.48725 11.3459 9.7682 11.8535C10.1055 11.9873 10.4237 11.9208 10.6819 11.6574C10.7164 11.6224 10.7555 11.5883 10.781 11.5481C11.2864 10.7369 12.0183 10.8174 12.6947 11.2803C13.1392 11.5839 13.5701 11.9042 14.0102 12.214C14.6775 12.6873 14.672 13.1319 14.2647 13.7724ZM10.4646 5.37483C10.2946 5.37483 10.1237 5.38795 9.95639 5.41508C9.67275 5.46146 9.40547 5.27683 9.35819 5.00382C9.31092 4.73169 9.50183 4.47356 9.78548 4.42806C10.0082 4.39306 10.2373 4.37468 10.4646 4.37468C12.7147 4.37468 14.5456 6.13697 14.5456 8.30263C14.5456 8.52226 14.5265 8.74277 14.4893 8.95715C14.4465 9.20128 14.2265 9.37453 13.9774 9.37453C13.9493 9.37453 13.9202 9.37278 13.8911 9.36753C13.6083 9.32115 13.4174 9.0639 13.4647 8.79177C13.4929 8.63252 13.5065 8.46801 13.5065 8.30351C13.5065 6.68823 12.1419 5.37483 10.4646 5.37483ZM12.7274 8.62464C12.7274 8.90027 12.4947 9.12428 12.2083 9.12428C11.9219 9.12428 11.6892 8.90027 11.6892 8.62464C11.6892 7.79775 10.9901 7.12486 10.1309 7.12486C9.84457 7.12486 9.61184 6.90086 9.61184 6.62523C9.61184 6.3496 9.84457 6.12559 10.1309 6.12559C11.5619 6.12472 12.7274 7.24649 12.7274 8.62464ZM16.2239 9.23453C16.1693 9.46728 15.9557 9.62391 15.7175 9.62391C15.6793 9.62391 15.6402 9.61953 15.602 9.61166C15.322 9.55041 15.1466 9.28265 15.2102 9.01402C15.2857 8.69464 15.3238 8.36476 15.3238 8.034C15.3238 5.60321 13.2692 3.6248 10.7428 3.6248C10.3982 3.6248 10.0564 3.66155 9.72457 3.73417C9.44637 3.7963 9.16637 3.62655 9.10364 3.35704C9.04 3.08753 9.21546 2.81978 9.49547 2.7594C9.90275 2.66928 10.3228 2.62465 10.7446 2.62465C13.8429 2.62465 16.3639 5.05107 16.3639 8.03313C16.3639 8.43914 16.3166 8.84339 16.2239 9.23453Z" fill="#476BCB"/>
</svg>
