<svg width="26" height="26" viewBox="0 0 26 26" fill="none" xmlns="http://www.w3.org/2000/svg">
<path d="M0.666992 3.02667L2.37366 1.33333L24.667 23.6267L22.9737 25.3333L10.0003 12.36V19.3333C10.0003 20.571 9.50866 21.758 8.63349 22.6332C7.75832 23.5083 6.57134 24 5.33366 24C4.09598 24 2.909 23.5083 2.03383 22.6332C1.15866 21.758 0.666992 20.571 0.666992 19.3333C0.666992 18.0957 1.15866 16.9087 2.03383 16.0335C2.909 15.1583 4.09598 14.6667 5.33366 14.6667C6.05366 14.6667 6.73366 14.8267 7.33366 15.12V9.69333L0.666992 3.02667ZM26.0003 0V16.6667C26.0003 18 25.427 19.2267 24.507 20.08L17.9203 13.4933C18.7737 12.5733 20.0003 12 21.3337 12C22.0537 12 22.7337 12.16 23.3337 12.4533V4.62667L11.5603 7.13333L8.21366 3.78667L26.0003 0Z" fill="#333333"/>
</svg>
