<svg width="32" height="32" viewBox="0 0 32 32" fill="none" xmlns="http://www.w3.org/2000/svg">
<path d="M19.9998 1.33337H27.9998C28.7071 1.33337 29.3854 1.61433 29.8855 2.11442C30.3856 2.61452 30.6665 3.2928 30.6665 4.00004V21.3334C30.6665 22.0406 30.3856 22.7189 29.8855 23.219C29.3854 23.7191 28.7071 24 27.9998 24H19.9998C19.2926 24 18.6143 23.7191 18.1142 23.219C17.6141 22.7189 17.3332 22.0406 17.3332 21.3334V4.00004C17.3332 3.2928 17.6141 2.61452 18.1142 2.11442C18.6143 1.61433 19.2926 1.33337 19.9998 1.33337ZM19.9998 20H27.9998V4.00004H19.9998V20ZM3.99984 17.3334H14.6665V20H3.99984V28H19.9998V26.6667H23.9998V28C23.9998 28.7073 23.7189 29.3856 23.2188 29.8857C22.7187 30.3858 22.0404 30.6667 21.3332 30.6667H3.99984C3.29259 30.6667 2.61432 30.3858 2.11422 29.8857C1.61412 29.3856 1.33317 28.7073 1.33317 28V20C1.33317 19.2928 1.61412 18.6145 2.11422 18.1144C2.61432 17.6143 3.29259 17.3334 3.99984 17.3334ZM1.33317 13.3334L6.66651 10.6667L4.11984 9.45337C5.67984 5.74671 9.33317 3.33337 13.3332 3.33337V1.33337C10.1506 1.33337 7.09833 2.59766 4.84789 4.84809C2.59746 7.09853 1.33317 10.1508 1.33317 13.3334Z" fill="#E31235"/>
</svg>
