<svg width="234" height="50" viewBox="0 0 234 50" fill="none" xmlns="http://www.w3.org/2000/svg">
<path fill-rule="evenodd" clip-rule="evenodd" d="M218.299 14.3457H223.126L223.097 22.0959H224.146L226.9 14.3457H232.123L228.375 24.5854L232.663 35.9184H227.013L224.234 27.2431H223.097L223.126 35.9184H218.299V14.3457Z" fill="white"/>
<path fill-rule="evenodd" clip-rule="evenodd" d="M202.038 14.3457H206.835V22.1266H210.27V14.3457H215.064V35.9184H210.27V27.2725H206.835V35.9184H202.038V14.3457Z" fill="white"/>
<path fill-rule="evenodd" clip-rule="evenodd" d="M185.318 35.9466H190.314L190.912 32.217H194.343L194.941 35.9466H199.936L195.735 14.3779H189.546L185.318 35.9466ZM192.64 20.9094L193.549 27.4742H191.703L192.64 20.9094Z" fill="white"/>
<path fill-rule="evenodd" clip-rule="evenodd" d="M171.919 35.9185H177.766C179.043 35.9185 184.352 35.3672 184.38 28.8304C184.38 23.3441 180.266 22.387 177.597 22.387H176.717V19.5237H183.217V14.3472H171.919V35.9185ZM176.717 31.5802V26.6947H177.426C178.022 26.6947 179.557 26.7227 179.557 28.9492C179.557 31.2078 178.022 31.5802 177.426 31.5802H176.717Z" fill="white"/>
<path fill-rule="evenodd" clip-rule="evenodd" d="M152.874 14.3457H157.047L160.733 19.4355L164.455 14.3457H168.599V35.9184H163.684V22.7607L160.733 26.5196L157.784 22.7607V35.9184H152.874V14.3457Z" fill="white"/>
<path fill-rule="evenodd" clip-rule="evenodd" d="M142.739 36.18C148.559 36.18 150.515 30.6256 150.515 25.1046C150.515 19.5836 148.559 14.0293 142.739 14.0293C136.921 14.0293 134.964 19.5836 134.964 25.1046C134.964 30.6256 136.921 36.18 142.739 36.18ZM142.739 30.9446C141.005 30.9446 140.129 28.8943 140.129 25.1046C140.129 21.3149 141.005 19.2633 142.739 19.2633C144.474 19.2633 145.349 21.3149 145.349 25.1046C145.349 28.8943 144.474 30.9446 142.739 30.9446Z" fill="white"/>
<path fill-rule="evenodd" clip-rule="evenodd" d="M120.739 35.9184H125.65V28.8062H127.298C132.15 28.8062 133.656 24.3518 133.656 21.5139C133.656 18.7401 131.922 14.3457 127.298 14.3457H120.739V35.9184ZM125.65 19.0884H126.814C127.922 19.0884 128.633 19.7826 128.633 21.5753C128.633 23.8886 127.438 24.0595 126.814 24.0595H125.65V19.0884Z" fill="white"/>
<path fill-rule="evenodd" clip-rule="evenodd" d="M104.532 14.3457H117.93V35.9184H113.018V19.5517H109.443V35.9184H104.532V14.3457Z" fill="white"/>
<path fill-rule="evenodd" clip-rule="evenodd" d="M94.4546 22.7055C95.2477 22.7055 96.6977 22.1836 96.6977 20.5938C96.6977 18.7156 95.0235 18.5968 94.5385 18.5968C93.9721 18.5968 92.8945 18.6863 91.8431 19.2069L91.7867 14.5188C93.4609 14.0863 94.6538 13.9702 96.071 13.9702C100.105 13.9702 101.893 16.8348 101.893 19.6367C101.893 22.3571 100.358 24.0017 98.8555 24.6397V24.8413C100.303 25.3085 102.233 26.7208 102.233 30.0192C102.233 34.0986 99.452 36.3518 95.8744 36.3518C93.9721 36.3251 92.7228 36.0648 91.2178 35.2265L91.3043 30.7414C92.6952 31.3514 93.6313 31.4075 94.5686 31.4075C96.1588 31.4075 96.7816 30.2194 96.7816 29.3558C96.7816 28.1397 96.0159 27.3308 94.3418 27.3308H92.3544V22.7055H94.4546Z" fill="white"/>
<path fill-rule="evenodd" clip-rule="evenodd" d="M75.1553 35.9184H80.1212L80.7466 32.1861H84.1813L84.7765 35.9184H89.7425L85.5408 14.3457H79.3543L75.1553 35.9184ZM82.4482 20.8531L83.3856 27.446H81.5109L82.4482 20.8531Z" fill="white"/>
<path fill-rule="evenodd" clip-rule="evenodd" d="M65.6465 14.3457H75.7187V19.7238H70.64V35.9184H65.6465V14.3457Z" fill="white"/>
<path fill-rule="evenodd" clip-rule="evenodd" d="M24.5687 0C11.0165 0 0 11.2131 0 25.0136C0 38.7856 11.0165 50 24.5687 50C38.0916 50 49.1054 38.7856 49.1054 25.0136C49.1054 11.2131 38.0916 0 24.5687 0ZM24.5687 48.75C11.6978 48.75 1.22763 38.0986 1.22763 25.0135C1.22763 11.9045 11.6935 1.24999 24.5687 1.24999C37.4184 1.24999 47.8778 11.9083 47.8778 25.0135C47.8778 38.0948 37.414 48.75 24.5687 48.75Z" fill="white"/>
<path fill-rule="evenodd" clip-rule="evenodd" d="M16.7134 8.65677C15.7446 9.08393 15.0065 9.54846 14.2711 10.0677C20.2019 7.37931 27.4425 7.55418 31.3282 9.31886C32.55 9.89685 33.3707 10.2466 33.743 10.9367C29.7105 9.83679 27.9787 9.63789 24.6029 9.72199C19.8021 9.81009 13.4163 11.7443 10.9753 13.2233L9.9016 14.5835C13.4163 12.4665 19.9751 11.0835 23.6105 10.9661C27.6693 10.91 30.8182 11.2864 33.7155 12.3557C33.5424 13.1059 33.1741 13.4823 32.55 13.8601C20.9689 11.8057 14.1269 14.2325 7.93907 18.3385L7.48678 19.6961C14.3851 14.8705 22.8409 13.5424 30.99 14.9867C28.0665 16.0279 24.5754 16.2588 21.6519 16.9476C19.1545 17.5282 17.8199 17.7031 14.4953 18.8324C11.1221 19.9604 9.13075 21.1163 7.88401 22.5914C7.28752 23.2882 6.83261 24.0957 6.71724 24.9607C6.6648 25.4787 6.69233 25.9459 6.86407 26.4091C7.00041 26.8135 7.31374 27.218 7.65721 27.6224C7.2613 28.3152 6.9152 29.2149 7.48678 30.2561C7.74111 30.7447 8.39398 31.2359 9.02194 31.7031L8.84627 32.2184C8.76105 32.8297 8.67846 33.5506 9.07569 34.1566C9.75477 35.2552 10.5781 35.98 11.8838 36.6741C12.0844 37.5711 12.3938 38.292 13.0755 38.9314C14.5228 40.2876 17.7609 42.8906 23.5213 43.2964C27.8384 43.5874 30.931 42.2552 32.0964 41.6758L33.5149 40.9256C31.1027 41.9068 27.0452 42.4861 23.7206 42.1964C18.8949 41.792 14.5844 38.583 14.0443 37.6566C14.2121 37.77 14.4402 37.8581 14.6355 37.9462C20.2872 40.7214 27.5814 42.2271 36.9208 38.352L37.6904 37.5992C29.1992 40.2876 21.7659 40.2022 13.786 35.952C13.8739 35.5475 14.0443 35.1951 14.41 34.9121C16.4526 35.8318 18.4138 36.5887 20.7984 37.0773C23.5803 37.5992 26.7581 37.7167 29.3722 37.5992C32.0125 37.4844 37.2328 36.1535 39.704 34.824C39.9295 34.6224 40.0423 34.2781 40.2691 34.0445C35.4473 35.8318 29.7105 36.6741 26.2495 36.4112C22.8711 36.1535 19.865 35.7464 15.8888 33.8976C16.6531 33.5813 17.4489 33.3196 18.2433 33.086C20.8548 33.8976 23.5213 34.3862 26.6729 34.533C29.7983 34.6772 37.0912 33.4945 41.6888 30.6619C41.833 30.2561 41.9733 29.8196 41.9733 29.8196C41.9733 29.8196 35.5863 33.2929 28.351 33.2929C24.9713 33.2929 22.8999 32.799 21.3687 32.4239C24.772 31.7872 29.0602 31.2653 33.882 30.0239C36.323 29.3858 39.333 27.9388 40.6964 26.7268C41.8593 25.6535 42.7691 24.2653 42.4584 22.8543C42.3968 22.4739 41.8881 21.5822 41.2628 21.2618C41.8593 20.481 41.8029 19.8149 41.7203 19.2409C41.6613 18.8004 41.462 18.3131 41.2103 17.8806C40.8118 17.3547 40.4395 16.9476 39.6726 16.4884C39.7879 15.8223 39.704 15.2456 39.4458 14.6957C38.8506 13.6545 37.7743 12.7601 35.9284 11.8057C35.8432 11.4279 35.6138 10.9367 35.2192 10.4468C32.8935 8.10414 29.0877 6.97618 25.8785 6.91745C25.6989 6.91344 25.5206 6.91211 25.3449 6.91211C21.5916 6.91211 18.579 7.77042 16.7134 8.65677ZM34.8783 14.4394C35.1641 14.1204 35.5863 13.6292 35.699 13.2234C36.4961 13.744 37.4046 14.5249 37.516 15.3351C36.6665 15.0134 35.758 14.6717 34.8783 14.4394ZM35.5862 17.9648C34.2268 17.587 33.0351 17.1238 31.4409 16.8382C32.4098 16.4591 33.0587 16.0573 33.6303 15.5927C34.9032 15.9371 36.0962 16.3736 37.0663 16.8061C36.8998 17.0584 35.9271 17.9741 35.6308 17.9741C35.6125 17.9741 35.598 17.9714 35.5862 17.9648ZM38.0574 18.9765C38.4245 18.6869 38.7667 18.3718 39.08 17.9927C39.8443 18.6575 40.0711 19.1207 39.704 19.8442C39.1954 19.4691 38.6513 19.2649 38.0574 18.9765ZM8.90789 26.1487C6.80378 23.1987 14.098 21.0896 15.4916 20.6545C19.0391 19.5812 23.1844 18.7763 26.9325 18.3131C29.5099 17.9927 30.8772 18.2851 33.3196 18.9485C27.0452 20.6545 20.8548 21.2004 14.9502 22.9664C10.19 24.3747 8.92756 26.1487 8.90789 26.1487ZM10.4653 27.5637C12.6796 25.6535 17.1946 24.5856 18.8425 24.2092C24.0916 23.0532 28.975 22.3311 30.99 21.8118C33.4323 21.2004 35.1353 20.6251 36.323 20.0485C36.3807 19.9604 38.3105 20.9134 38.5097 21.1417C37.8582 21.6943 36.9523 22.1589 35.9559 22.5019C32.9761 23.6019 27.5552 24.7565 24.6894 25.1983C21.7935 25.6869 19.376 26.0607 16.1733 26.9243C14.3261 27.4196 13.0755 27.9975 12.167 28.6062C11.4866 28.2004 11.0893 28.087 10.4653 27.5637ZM14.5844 29.8771C15.5178 29.4726 16.5404 29.1536 17.5315 28.8973C22.5289 27.6478 26.9325 27.4196 33.0062 25.7443C35.9284 24.9608 38.0574 24.1198 39.3933 23.084C39.59 22.9064 39.7879 22.7636 39.9885 22.5914C41.7478 25.3666 35.1353 27.5064 30.619 28.4941C28.1202 29.0094 24.6566 29.6435 23.5213 29.8504C20.5743 30.3416 19.6041 30.6032 17.5616 31.2093C16.5404 30.8035 15.5178 30.3696 14.5844 29.8771ZM9.27233 29.0093C9.72724 29.3017 10.0668 29.5339 10.6082 29.8196C10.4089 29.9931 10.152 30.168 9.95535 30.3696C9.50306 30.1066 9.04553 29.5339 9.27233 29.0093ZM11.6308 31.6698C11.9153 31.4108 12.2823 31.1518 12.6796 30.8929C13.5317 31.2987 14.41 31.6698 15.2333 32.0475C14.6355 32.2771 14.098 32.5388 13.6471 32.8298C12.9653 32.4493 12.3099 32.0756 11.6308 31.6698ZM10.8914 33.086C11.3738 33.405 11.8563 33.664 12.3413 33.927C12.1421 34.2166 11.9978 34.4449 11.9153 34.7372C11.2047 34.1285 10.8612 33.6373 10.8914 33.086Z" fill="white"/>
</svg>
