<svg width="12" height="21" viewBox="0 0 12 21" fill="none" xmlns="http://www.w3.org/2000/svg">
<path d="M8.18542 14.9492C9.28904 14.7006 10.3433 14.2686 11.3015 13.672C12.0234 13.1937 12.2173 12.2268 11.7343 11.5119C11.2704 10.8245 10.3459 10.617 9.62662 11.0379C7.41938 12.4051 4.61488 12.4051 2.40764 11.0379C1.67449 10.5802 0.706761 10.7979 0.243672 11.5222C0.243672 11.5239 0.243673 11.5256 0.241941 11.5265C-0.220281 12.2525 -0.000422269 13.2117 0.732729 13.6694L0.73446 13.6711C1.69093 14.2669 2.74435 14.6998 3.84711 14.9466L0.847851 17.9167C0.235882 18.5125 0.22463 19.4854 0.823615 20.0914L0.849583 20.1171C1.14734 20.4206 1.55071 20.5714 1.95234 20.5714C2.35484 20.5714 2.75733 20.4206 3.05596 20.1171L6.01713 17.1993L8.96358 20.1188C9.58681 20.7146 10.5822 20.6983 11.1847 20.0803C11.7715 19.4777 11.7715 18.5219 11.1847 17.9202L8.18542 14.9492ZM6.01713 10.6187C8.97743 10.6153 11.3751 8.24092 11.3794 5.31022C11.3794 2.38296 8.9731 0 6.01713 0C3.06115 0 0.654826 2.38296 0.654826 5.31194C0.659154 8.24349 3.05769 10.6179 6.01713 10.6196V10.6187ZM6.01713 3.11242C7.2428 3.11413 8.23563 4.09817 8.23649 5.31108C8.23649 6.52484 7.2428 7.50803 6.01713 7.50974C4.79233 7.50803 3.7995 6.5257 3.7969 5.31194C3.79863 4.09731 4.79233 3.11413 6.01713 3.11156V3.11242Z" fill="#476BCB"/>
</svg>
