<svg width="23" height="15" viewBox="0 0 23 15" fill="none" xmlns="http://www.w3.org/2000/svg">
<path d="M12.1 14C12.65 14 12.925 13.6 12.925 13.1C12.925 11.2 13.5667 10.2 14.85 11.5C16.225 13 16.5 14 18.15 14H21.0833C21.8167 14 22.0917 13.7 22.0917 13.3C22.0917 12.4 20.8083 10.9 19.7083 9.8C18.15 8.2 18.0583 8.2 19.4333 6.3C20.9917 4 23.1 1 21.175 1H17.5083C16.775 1 16.775 1.4 16.5 2.1C15.5833 4.4 13.8417 7.5 13.2 7C12.4667 6.5 12.8333 4.6 12.8333 1.7C12.8333 0.9 12.8333 0.4 11.825 0.2C11.275 0.1 10.725 0 10.175 0C8.15833 0 6.69167 1 7.51667 1.1C8.98333 1.4 8.8 4.8 8.525 6.3C7.975 8.9 5.775 4.3 4.85833 2C4.58333 1.4 4.49167 1 3.66667 1H0.733333C0.275 1 0 1.2 0 1.5C0 2.1 2.75 8.2 5.31667 11.3C7.79167 14.3 10.3583 14 12.1 14Z" fill="#476BCB"/>
</svg>
