<svg width="19" height="19" viewBox="0 0 19 19" fill="none" xmlns="http://www.w3.org/2000/svg">
<path d="M12.2646 10.6226L12.4352 10.1526C12.4319 10.1513 12.4283 10.1501 12.4247 10.1487C12.3297 10.1141 12.1352 10.0431 11.9238 10.0669C11.6483 10.0978 11.4539 10.2638 11.3225 10.4634C11.2001 10.6449 10.8533 11.0606 10.6801 11.2585C10.6339 11.2365 10.5795 11.2127 10.5174 11.1857C10.177 11.0374 9.60747 10.7892 8.92394 10.1786L8.92326 10.178C8.35538 9.67246 7.94391 9.05095 7.76982 8.76433C7.85562 8.67578 7.95581 8.55491 8.0337 8.46094C8.0669 8.42088 8.09605 8.38571 8.11831 8.36002L8.12338 8.35417L8.12825 8.34818C8.26731 8.17725 8.33425 8.03853 8.39699 7.90853C8.40423 7.89352 8.41142 7.87863 8.41865 7.86382C8.60662 7.49987 8.48602 7.17466 8.40159 7.00465C8.40184 7.00516 8.40159 7.00458 8.40075 7.00269C8.39822 6.99696 8.39037 6.97921 8.37532 6.94341C8.3578 6.90174 8.33508 6.84663 8.30808 6.78058C8.27284 6.69436 8.23149 6.59241 8.18637 6.48118C8.16225 6.4217 8.13704 6.35956 8.11112 6.29575C7.96461 5.9351 7.79394 5.51807 7.68418 5.27534L7.68416 5.2753C7.57194 5.0272 7.42464 4.82554 7.21364 4.70183C7.00846 4.58153 6.80778 4.57704 6.71694 4.575C6.71684 4.575 6.71674 4.575 6.71664 4.575C6.58173 4.56827 6.43077 4.56839 6.29682 4.5685C6.28036 4.56851 6.26417 4.56852 6.24829 4.56852C5.97642 4.56852 5.57899 4.66707 5.25091 5.02388L5.2509 5.02387L5.24783 5.02727C5.23369 5.04294 5.21723 5.06064 5.19881 5.08043C4.94045 5.3582 4.29793 6.04897 4.29793 7.32601C4.29793 8.01622 4.5459 8.66703 4.78702 9.14288C5.02735 9.6172 5.28266 9.9597 5.35561 10.0554C5.35587 10.0558 5.35637 10.0565 5.35715 10.0577C5.36006 10.0619 5.36693 10.072 5.38028 10.0918C5.38355 10.0966 5.38705 10.1018 5.39078 10.1074C5.40711 10.1316 5.4278 10.1623 5.45184 10.1976C5.51135 10.285 5.59274 10.4023 5.69477 10.5416C5.89856 10.8197 6.18497 11.1857 6.54618 11.5778C7.26355 12.3566 8.29987 13.265 9.59509 13.7751L9.59515 13.7751C10.6036 14.1722 11.2442 14.3451 11.706 14.4067C12.1007 14.4593 12.3655 14.4273 12.5475 14.4052C12.5844 14.4008 12.6178 14.3967 12.6482 14.3939C12.9818 14.3645 13.4101 14.1732 13.7562 13.9494C14.0969 13.729 14.5053 13.3832 14.6607 12.9474L14.6608 12.9472C14.7731 12.6316 14.831 12.3343 14.8514 12.093C14.8615 11.9729 14.8631 11.8589 14.8547 11.7582C14.8486 11.6849 14.8323 11.5316 14.7499 11.3978L14.7492 11.3967C14.6461 11.2303 14.4901 11.14 14.4053 11.0936C14.35 11.0633 14.273 11.026 14.2012 10.9912C14.1641 10.9733 14.1285 10.956 14.0979 10.9407C13.9778 10.8807 13.6275 10.7077 13.2797 10.5398C12.9487 10.3801 12.5735 10.202 12.433 10.1518L12.2646 10.6226ZM12.2646 10.6226C12.4816 10.7001 13.6384 11.27 13.8743 11.3879C13.9205 11.411 13.9635 11.4318 14.0034 11.4511C14.1671 11.5302 14.2765 11.583 14.3242 11.6601M12.2646 10.6226C12.0509 10.545 11.8933 10.5042 11.7389 10.7401C11.5806 10.976 11.1322 11.5057 10.9921 11.6601H14.3242M14.3242 11.6601C14.3852 11.759 14.3852 12.2301 14.1897 12.7795L14.3242 11.6601ZM1.8367 14.5012L1.89316 14.2953L1.78341 14.1121C0.973557 12.7603 0.5 11.187 0.5 9.5C0.5 4.52977 4.52977 0.5 9.5 0.5C14.4702 0.5 18.5 4.52977 18.5 9.5C18.5 14.4702 14.4702 18.5 9.5 18.5C7.88542 18.5 6.37326 18.0692 5.06206 17.3237L4.885 17.2231L4.68799 17.2748L0.796381 18.2963L1.8367 14.5012Z" fill="#476BCB" stroke="#476BCB"/>
</svg>
