<svg width="56" height="56" viewBox="0 0 56 56" fill="none" xmlns="http://www.w3.org/2000/svg">
<circle cx="28" cy="28" r="28" fill="#476BCB"/>
<g clip-path="url(#clip0_302_164)">
<path d="M28.001 28.6939C33.1439 28.6939 37.3479 24.4898 37.3479 19.347C37.3479 14.2041 33.1439 10 28.001 10C22.8581 10 18.6541 14.2041 18.6541 19.347C18.6541 24.4898 22.8582 28.6939 28.001 28.6939Z" fill="#F9FAFF"/>
<path d="M44.0425 36.163C43.7976 35.5508 43.4711 34.9794 43.1038 34.4487C41.2262 31.6732 38.3283 29.8365 35.063 29.3875C34.6549 29.3467 34.2059 29.4283 33.8793 29.6732C32.165 30.9385 30.1242 31.5916 28.0017 31.5916C25.8792 31.5916 23.8385 30.9385 22.1242 29.6732C21.7976 29.4283 21.3486 29.3059 20.9405 29.3875C17.6752 29.8365 14.7364 31.6732 12.8997 34.4487C12.5324 34.9794 12.2058 35.5916 11.961 36.163C11.8385 36.408 11.8793 36.6937 12.0017 36.9386C12.3283 37.51 12.7364 38.0815 13.1038 38.5712C13.6752 39.3468 14.2874 40.0406 14.9813 40.6937C15.5527 41.2651 16.2058 41.7957 16.8589 42.3263C20.0834 44.7345 23.961 45.9998 27.961 45.9998C31.961 45.9998 35.8385 44.7345 39.063 42.3263C39.716 41.8366 40.3691 41.2651 40.9406 40.6937C41.5936 40.0406 42.2467 39.3467 42.8181 38.5712C43.2263 38.0406 43.5937 37.51 43.9202 36.9386C44.1242 36.6937 44.1649 36.4079 44.0425 36.163Z" fill="#F9FAFF"/>
</g>
<defs>
<clipPath id="clip0_302_164">
<rect width="36" height="36" fill="white" transform="translate(10 10)"/>
</clipPath>
</defs>
</svg>
